<svg width="532" height="532" viewBox="0 0 532 532" fill="none" xmlns="http://www.w3.org/2000/svg">
<mask id="mask0_2490_10092" style="mask-type:luminance" maskUnits="userSpaceOnUse" x="0" y="0" width="532" height="532">
<path d="M0 6.10352e-05H532V532H0V6.10352e-05Z" fill="white"/>
</mask>
<g mask="url(#mask0_2490_10092)">
<path d="M87.0583 474.773C-11.7681 417.715 -11.7681 325.207 87.0583 268.149C185.886 211.092 346.116 211.092 444.942 268.149C543.769 325.207 543.769 417.715 444.942 474.773C346.116 531.831 185.886 531.831 87.0583 474.773Z" fill="white"/>
</g>
<mask id="mask1_2490_10092" style="mask-type:luminance" maskUnits="userSpaceOnUse" x="0" y="0" width="532" height="532">
<path d="M0 6.10352e-05H532V532H0V6.10352e-05Z" fill="white"/>
</mask>
<g mask="url(#mask1_2490_10092)">
<path d="M220.964 485.541L70.0845 398.371C64.1984 394.971 64.1984 389.411 70.0845 386.012L314.384 244.863C316.807 243.464 320.773 243.464 323.197 244.863L477.778 334.181C480.887 335.977 480.886 340.464 477.777 342.258L229.777 485.541C227.353 486.94 223.388 486.94 220.964 485.541Z" fill="#F0F0F0"/>
<path d="M448.425 418.344C470.262 430.953 470.262 451.394 448.425 464.003C426.587 476.611 391.18 476.611 369.343 464.003C347.504 451.394 347.504 430.953 369.343 418.344C391.18 405.736 426.587 405.736 448.425 418.344Z" fill="#F0F0F0"/>
</g>
<mask id="mask2_2490_10092" style="mask-type:luminance" maskUnits="userSpaceOnUse" x="0" y="0" width="532" height="532">
<path d="M0 6.10352e-05H532V532H0V6.10352e-05Z" fill="white"/>
</mask>
<g mask="url(#mask2_2490_10092)">
<path d="M85.66 347.721C85.66 347.721 85.3418 325.008 75.9041 306.466C66.4665 287.922 52.1993 275.515 37.9885 272.957C23.7788 270.399 10.8991 282.426 25.3237 293C39.7484 303.575 66.0568 315.519 75.2179 350.612L85.66 347.721Z" fill="#2F9DC0"/>
<mask id="mask3_2490_10092" style="mask-type:luminance" maskUnits="userSpaceOnUse" x="19" y="272" width="67" height="79">
<path d="M19.0068 272.609H85.6599V350.613H19.0068V272.609Z" fill="white"/>
</mask>
<g mask="url(#mask3_2490_10092)">
<g opacity="0.149994">
<path d="M85.66 347.721C85.66 347.721 85.3418 325.008 75.9041 306.466C66.4665 287.922 52.1993 275.515 37.9885 272.957C23.7788 270.399 10.8991 282.426 25.3237 293C39.7484 303.575 66.0568 315.519 75.2179 350.612L85.66 347.721Z" fill="black"/>
</g>
</g>
<path d="M82.0413 341.47C82.0934 341.466 82.1456 341.458 82.1966 341.442C82.6052 341.321 82.8382 340.894 82.7169 340.487C71.3077 301.758 44.0799 283.35 31.2757 279.029C30.8757 278.89 30.4384 279.11 30.3011 279.512C30.166 279.915 30.3809 280.35 30.7842 280.486C43.3255 284.72 70.0117 302.8 81.2433 340.921C81.3476 341.278 81.687 341.499 82.0413 341.47Z" fill="white"/>
<path d="M87.1012 369.155C81.8258 372.19 78.8009 374.152 69.1238 374.967C63.3516 375.454 55.5408 374.635 48.8035 372.208C47.0086 371.561 44.2326 370.145 45.7935 368.417C46.6 367.524 56.0898 366.017 59.485 362.024C55.5121 363.086 50.2867 364.294 46.1744 364.383C42.062 364.473 37.7837 363.487 34.6289 360.85C31.4965 358.23 29.8026 354.319 28.2162 350.556C27.6746 349.272 27.1607 347.697 27.9917 346.578C28.5205 345.867 29.4377 345.587 30.291 345.349C33.8862 344.349 37.4804 343.348 41.0757 342.348C43.4218 341.848 41.7662 340.296 40.8789 340.165C39.3382 339.937 37.8656 339.942 36.9687 339.99C32.851 340.21 28.3034 340.986 24.9423 338.597C22.9302 337.167 21.7439 334.8 21.2406 332.383C21.0629 331.533 20.3543 320.421 20.8427 320.287C23.5186 319.558 26.3223 319.169 29.0706 318.856C31.6784 318.557 34.2193 318.435 36.8176 318.084C39.751 317.688 42.7111 317.494 45.6711 317.504C46.6755 317.507 47.7363 317.55 48.5854 318.086C49.7526 318.823 50.2165 320.294 50.3655 321.666C50.5134 323.038 50.4421 324.46 50.9198 325.753C52.1828 325.644 52.5956 324.002 52.5637 322.735C52.5307 321.467 52.5552 319.884 53.699 319.338C54.2799 319.06 54.963 319.172 55.594 319.301C59.6127 320.124 63.5325 321.428 67.2427 323.175C68.9408 323.974 70.6357 324.899 71.8572 326.324C73.6607 328.426 74.1927 331.343 74.2087 334.112C74.2246 336.883 73.7958 339.651 73.9767 342.415C76.1441 340.479 79.1584 334.594 79.3957 331.698C84.056 334.694 86.8181 340.871 87.6863 349.316C88.2588 354.886 88.1183 362.226 87.3448 367.875C87.3171 368.069 87.2735 369.055 87.1012 369.155Z" fill="#2F9DC0"/>
<mask id="mask4_2490_10092" style="mask-type:luminance" maskUnits="userSpaceOnUse" x="20" y="317" width="69" height="59">
<path d="M20.6738 317.503H88.0363V375.102H20.6738V317.503Z" fill="white"/>
</mask>
<g mask="url(#mask4_2490_10092)">
<g opacity="0.300003">
<path d="M87.1012 369.155C81.8258 372.189 78.8009 374.151 69.1238 374.966C63.3516 375.454 55.5408 374.634 48.8035 372.207C47.0086 371.561 44.2326 370.144 45.7935 368.416C46.6 367.524 56.0898 366.017 59.485 362.024C55.5121 363.086 50.2867 364.293 46.1744 364.383C42.062 364.473 37.7837 363.487 34.6289 360.849C31.4965 358.23 29.8026 354.318 28.2162 350.556C27.6746 349.272 27.1607 347.697 27.9917 346.578C28.5205 345.867 29.4377 345.587 30.291 345.349C33.8862 344.349 37.4804 343.348 41.0757 342.347C43.4218 341.847 41.7662 340.296 40.8789 340.165C39.3382 339.936 37.8656 339.942 36.9687 339.99C32.851 340.21 28.3034 340.985 24.9423 338.597C22.9302 337.167 21.7439 334.799 21.2406 332.383C21.0629 331.533 20.3543 320.42 20.8427 320.286C23.5186 319.558 26.3223 319.169 29.0706 318.855C31.6784 318.556 34.2193 318.435 36.8176 318.084C39.751 317.688 42.7111 317.493 45.6711 317.504C46.6755 317.507 47.7363 317.55 48.5854 318.086C49.7526 318.822 50.2165 320.294 50.3655 321.665C50.5134 323.038 50.4421 324.459 50.9198 325.753C52.1828 325.644 52.5956 324.002 52.5637 322.735C52.5307 321.466 52.5552 319.884 53.699 319.337C54.2799 319.06 54.963 319.171 55.594 319.301C59.6127 320.124 63.5325 321.428 67.2427 323.175C68.9408 323.974 70.6357 324.899 71.8572 326.324C73.6607 328.426 74.1927 331.342 74.2087 334.112C74.2246 336.883 73.7958 339.651 73.9767 342.414C76.1441 340.479 79.1584 334.594 79.3957 331.698C84.056 334.694 86.8181 340.871 87.6863 349.316C88.2588 354.886 88.1183 362.226 87.3448 367.875C87.3171 368.068 87.2735 369.055 87.1012 369.155Z" fill="black"/>
</g>
</g>
<path d="M86.2291 368.104C85.9982 368.104 85.7758 367.979 85.662 367.761C70.5681 338.776 37.1744 326.562 29.0593 324.877C28.7135 324.806 28.4911 324.467 28.5635 324.122C28.6358 323.777 28.9795 323.563 29.3189 323.626C37.5606 325.337 71.4682 337.74 86.7941 367.17C86.9579 367.483 86.8355 367.868 86.5227 368.032C86.428 368.081 86.328 368.104 86.2291 368.104Z" fill="white"/>
<path d="M42.3666 351.403C42.0368 351.403 41.758 351.149 41.7304 350.814C41.7038 350.463 41.9666 350.156 42.3177 350.128C58.9767 348.819 64.3648 342.297 64.418 342.231C64.6362 341.954 65.0373 341.911 65.3129 342.128C65.5884 342.347 65.6363 342.746 65.4193 343.023C65.1937 343.309 59.7056 350.043 42.4177 351.402C42.4007 351.403 42.3837 351.403 42.3666 351.403Z" fill="white"/>
<path d="M489.478 270.572C482.095 278.648 468.549 291.938 460.675 304.769C460.654 304.801 460.633 304.833 460.622 304.865C457.547 309.898 455.345 314.856 454.738 319.399L454.185 327.603L450.812 325.656L450.248 325.326L448.854 324.528C446.857 323.371 445.604 321.256 445.541 318.948C444.999 298.944 450.345 281.94 455.515 271.648C462.59 257.593 475.848 243.26 487.372 244.664C498.085 245.973 499.777 259.315 489.478 270.572Z" fill="#2F9DC0"/>
<mask id="mask5_2490_10092" style="mask-type:luminance" maskUnits="userSpaceOnUse" x="445" y="244" width="52" height="84">
<path d="M445.502 244.568H496.369V327.603H445.502V244.568Z" fill="white"/>
</mask>
<g mask="url(#mask5_2490_10092)">
<g opacity="0.149994">
<path d="M489.478 270.573C482.095 278.648 468.549 291.938 460.675 304.77C460.654 304.802 460.633 304.833 460.622 304.865C457.547 309.898 455.345 314.856 454.738 319.4L454.185 327.603L450.812 325.656L450.248 325.326L448.854 324.528C446.857 323.372 445.604 321.256 445.541 318.948C444.999 298.944 450.345 281.94 455.515 271.648C462.59 257.593 475.848 243.26 487.372 244.664C498.085 245.973 499.777 259.316 489.478 270.573Z" fill="black"/>
</g>
</g>
<path d="M484.04 252.421C469.932 261.337 449.791 292.416 450.248 325.326L448.855 324.528C448.737 291.416 469.049 260.262 483.297 251.25C483.625 251.037 484.052 251.144 484.253 251.474C484.456 251.793 484.361 252.218 484.04 252.421Z" fill="white"/>
<path d="M497.841 296.938C495.382 303.609 481.36 309.397 471.006 319.027C468.287 321.563 465.915 324.176 463.906 326.744C461.904 329.305 458.319 329.987 455.505 328.358L454.27 327.645L454.185 327.602L450.812 325.655C452.813 318.122 456.409 310.983 460.623 304.865C460.632 304.833 460.655 304.801 460.675 304.769C467.528 294.831 475.987 287.649 481.892 286.021C493.5 282.829 500.789 288.926 497.841 296.938Z" fill="#2F9DC0"/>
<mask id="mask6_2490_10092" style="mask-type:luminance" maskUnits="userSpaceOnUse" x="450" y="285" width="49" height="45">
<path d="M450.812 285.157H498.496V329.239H450.812V285.157Z" fill="white"/>
</mask>
<g mask="url(#mask6_2490_10092)">
<g opacity="0.300003">
<path d="M497.841 296.938C495.382 303.609 481.36 309.397 471.006 319.027C468.287 321.563 465.915 324.176 463.906 326.744C461.904 329.305 458.319 329.987 455.505 328.358L454.27 327.645L454.185 327.602L450.812 325.655C452.813 318.122 456.409 310.983 460.623 304.865C460.632 304.833 460.655 304.801 460.675 304.769C467.528 294.831 475.987 287.649 481.892 286.021C493.5 282.829 500.789 288.926 497.841 296.938Z" fill="black"/>
</g>
</g>
<path d="M487.977 292.927C479.497 295.321 463.069 305.663 455.504 328.358L454.27 327.645C461.941 304.673 478.273 294.225 487.605 291.597C487.988 291.49 488.351 291.703 488.456 292.076C488.562 292.448 488.351 292.831 487.977 292.927Z" fill="white"/>
</g>
<mask id="mask7_2490_10092" style="mask-type:luminance" maskUnits="userSpaceOnUse" x="0" y="0" width="532" height="532">
<path d="M0 6.10352e-05H532V532H0V6.10352e-05Z" fill="white"/>
</mask>
<g mask="url(#mask7_2490_10092)">
<path d="M77.7773 382.305C77.7773 385.997 80.5416 390.585 83.9496 392.553L218.318 470.146C221.727 472.115 227.253 472.115 230.661 470.146L467.271 333.54C470.678 331.572 473.443 326.984 473.443 323.292C473.443 319.599 470.68 315.011 467.271 313.043L332.902 235.45C329.493 233.482 323.967 233.482 320.558 235.45L83.9485 372.056C80.5395 374.023 77.7773 378.612 77.7773 382.305Z" fill="#375A64"/>
<path d="M473.447 323.292C473.447 326.988 470.68 331.569 467.272 333.538L230.659 470.151C228.955 471.125 226.72 471.623 224.496 471.623V458.257C226.72 458.257 228.955 457.759 230.659 456.774L467.272 320.173C470.258 318.452 470.631 315.789 468.391 313.831C471.259 316.059 473.447 320.016 473.447 323.292Z" fill="#2B454E"/>
<path d="M224.494 458.263V471.618C222.256 471.618 220.018 471.134 218.322 470.15L83.9477 392.553C80.5407 390.586 77.7754 385.997 77.7754 382.305C77.7754 378.842 80.213 374.594 83.3199 372.457C80.5546 374.438 80.7684 377.345 83.9477 379.184L218.322 456.781C220.018 457.764 222.256 458.263 224.494 458.263Z" fill="#1A2E35"/>
<path d="M71.9878 372.276C68.9714 370.148 68.965 367.313 68.965 363.377L68.9629 164.541C68.9629 160.605 71.7261 155.819 75.1352 153.852L311.743 17.2462C315.152 15.2779 318.296 16.7036 321.495 18.5496C324.691 20.3967 326.73 21.9885 326.73 25.9242V224.76C326.73 228.696 323.967 233.482 320.558 235.45L83.9483 372.055C78.7889 375.534 75.2713 374.593 71.9878 372.276Z" fill="#2B454E"/>
<path d="M83.9481 372.058C78.7898 375.531 75.2659 374.592 71.9877 372.273C68.9744 370.148 68.9648 367.31 68.9648 363.377V164.544C68.9648 162.574 69.6596 160.398 70.7619 158.468L79.5772 163.595C78.4632 165.515 77.779 167.691 77.779 169.652V368.494C77.779 372.426 80.5369 374.019 83.9481 372.058Z" fill="#1A2E35"/>
<path d="M326.732 25.919C326.732 21.9918 323.966 20.3979 320.558 22.3567L83.9442 158.969C82.2408 159.954 80.6916 161.646 79.585 163.583L70.7783 158.46H70.7666C71.8849 156.524 73.4341 154.831 75.1375 153.846L311.739 17.2442C315.147 15.2747 318.291 16.6995 321.489 18.5476C324.686 20.3958 326.732 21.9918 326.732 25.919Z" fill="#375A64"/>
<path d="M87.2681 166.086L315.39 34.4149C317.436 33.2339 319.092 34.1915 319.092 36.5525V218.929C319.092 221.29 317.436 224.161 315.39 225.342L87.2681 357.011C85.2231 358.192 83.5654 357.235 83.5654 354.874V172.5C83.5654 170.139 85.2231 167.267 87.2681 166.086Z" fill="#1A2E35"/>
<path d="M87.2681 166.086C85.2231 167.267 83.5654 170.139 83.5654 172.5V353.773L310.345 222.879C312.39 221.698 314.048 218.826 314.048 216.465V35.1895L87.2681 166.086Z" fill="#2F9DC0"/>
<mask id="mask8_2490_10092" style="mask-type:luminance" maskUnits="userSpaceOnUse" x="83" y="35" width="232" height="319">
<path d="M83.5654 35.1887H314.048V353.774H83.5654V35.1887Z" fill="white"/>
</mask>
<g mask="url(#mask8_2490_10092)">
<g opacity="0.649994">
<path d="M87.2681 166.086C85.2231 167.267 83.5654 170.139 83.5654 172.5V353.773L310.345 222.879C312.39 221.698 314.048 218.826 314.048 216.465V35.1893L87.2681 166.086Z" fill="white"/>
</g>
</g>
<path d="M101.027 372.42L320.653 245.621C322.356 244.637 325.12 244.637 326.824 245.622L333.214 248.978C334.918 249.962 334.918 251.557 333.214 252.541L113.556 379.32C111.851 380.303 109.088 380.303 107.384 379.32L101.027 375.984C99.3229 374.999 99.3229 373.404 101.027 372.42Z" fill="#2B454E"/>
<path d="M118.254 382.663L337.876 255.863C339.58 254.879 342.105 254.742 343.515 255.556L400.678 288.562C402.09 289.375 401.851 290.833 400.146 291.817L180.781 418.445C179.076 419.429 176.548 419.57 175.134 418.761L117.727 385.91C116.314 385.101 116.549 383.648 118.254 382.663Z" fill="#1A2E35"/>
<path d="M233.255 327.372C233.495 327.511 233.926 327.486 234.217 327.317L241.094 323.347C241.386 323.178 241.43 322.93 241.191 322.792L235.124 319.289C234.885 319.151 234.453 319.176 234.162 319.344L227.285 323.315C226.994 323.483 226.951 323.732 227.191 323.87L233.255 327.372ZM315.77 277.163C316.008 277.302 316.439 277.277 316.732 277.109L323.608 273.138C323.9 272.97 323.942 272.721 323.703 272.583L322.089 271.651C321.849 271.512 321.418 271.537 321.126 271.706L314.249 275.676C313.959 275.845 313.915 276.094 314.155 276.232L315.77 277.163ZM368.141 295.186L375.017 291.215C375.311 291.046 375.354 290.798 375.114 290.66L369.048 287.158C368.809 287.019 368.378 287.045 368.087 287.213L361.21 291.182C360.917 291.352 360.875 291.601 361.114 291.738L367.179 295.241C367.418 295.379 367.849 295.354 368.141 295.186ZM348.611 272.916C348.852 273.053 349.281 273.029 349.573 272.86L356.45 268.891C356.743 268.721 356.785 268.474 356.546 268.335L350.481 264.833C350.241 264.694 349.81 264.719 349.519 264.887L342.642 268.858C342.348 269.027 342.306 269.276 342.546 269.413L348.611 272.916ZM335.869 265.558C336.109 265.697 336.539 265.672 336.832 265.504L343.708 261.534C344 261.365 344.043 261.116 343.803 260.979L342.189 260.046C341.949 259.908 341.518 259.932 341.227 260.101L334.35 264.071C334.058 264.24 334.015 264.489 334.255 264.627L335.869 265.558ZM305.718 282.966C305.957 283.105 306.388 283.08 306.681 282.911L313.558 278.94C313.849 278.772 313.892 278.524 313.653 278.386L312.038 277.453C311.799 277.315 311.368 277.34 311.077 277.508L304.201 281.479C303.907 281.647 303.865 281.896 304.104 282.034L305.718 282.966ZM253.356 315.767C253.595 315.906 254.026 315.881 254.318 315.713L261.195 311.742C261.487 311.574 261.529 311.325 261.29 311.187L255.225 307.685C254.985 307.547 254.555 307.571 254.263 307.739L247.386 311.71C247.094 311.878 247.051 312.127 247.291 312.266L253.356 315.767ZM243.306 321.57C243.545 321.708 243.976 321.683 244.268 321.515L251.144 317.545C251.436 317.376 251.48 317.127 251.24 316.989L245.174 313.487C244.935 313.349 244.504 313.373 244.212 313.542L237.336 317.512C237.043 317.682 237.002 317.929 237.24 318.068L243.306 321.57ZM285.728 297.077C285.967 297.216 286.398 297.191 286.692 297.023L293.567 293.052C293.859 292.884 293.902 292.635 293.662 292.498L287.596 288.995C287.358 288.857 286.927 288.881 286.635 289.049L279.759 293.02C279.467 293.189 279.423 293.437 279.662 293.575L285.728 297.077ZM263.406 309.965C263.645 310.104 264.076 310.079 264.369 309.91L271.246 305.94C271.537 305.772 271.581 305.522 271.34 305.384L265.275 301.882C265.036 301.745 264.605 301.769 264.312 301.938L257.437 305.908C257.144 306.076 257.102 306.325 257.341 306.464L263.406 309.965ZM295.779 291.275C296.018 291.413 296.45 291.388 296.74 291.22L303.617 287.25C303.909 287.081 303.952 286.832 303.713 286.695L297.648 283.192C297.407 283.054 296.977 283.079 296.685 283.247L289.808 287.218C289.517 287.386 289.473 287.635 289.713 287.773L295.779 291.275ZM275.678 302.879C275.918 303.017 276.348 302.994 276.64 302.825L283.517 298.855C283.809 298.687 283.852 298.437 283.612 298.299L277.547 294.798C277.307 294.659 276.876 294.683 276.585 294.852L269.708 298.822C269.415 298.991 269.373 299.24 269.612 299.378L275.678 302.879ZM325.819 271.361C326.059 271.5 326.489 271.475 326.781 271.306L333.658 267.336C333.95 267.168 333.993 266.919 333.753 266.781L332.139 265.848C331.9 265.709 331.469 265.735 331.176 265.904L324.3 269.874C324.009 270.042 323.966 270.291 324.205 270.429L325.819 271.361ZM270.285 351.684L277.162 347.713C277.453 347.545 277.497 347.296 277.257 347.157L271.191 343.656C270.952 343.517 270.521 343.542 270.229 343.711L263.353 347.681C263.06 347.849 263.018 348.098 263.257 348.236L269.322 351.739C269.562 351.876 269.992 351.852 270.285 351.684ZM250.185 363.288L257.061 359.318C257.353 359.15 257.396 358.901 257.157 358.762L251.091 355.26C250.852 355.123 250.421 355.147 250.128 355.316L243.253 359.286C242.96 359.454 242.918 359.703 243.157 359.841L249.223 363.344C249.462 363.481 249.893 363.457 250.185 363.288ZM260.234 357.486L267.111 353.516C267.403 353.347 267.447 353.098 267.207 352.959L261.141 349.458C260.902 349.319 260.471 349.345 260.179 349.513L253.302 353.484C253.011 353.652 252.967 353.9 253.206 354.038L259.272 357.541C259.512 357.679 259.944 357.654 260.234 357.486ZM220.034 380.695L226.911 376.725C227.203 376.557 227.246 376.308 227.005 376.169L220.941 372.668C220.701 372.53 220.27 372.554 219.978 372.723L213.102 376.693C212.81 376.861 212.767 377.11 213.006 377.248L219.071 380.751C219.312 380.888 219.742 380.864 220.034 380.695ZM240.134 369.09L247.011 365.121C247.303 364.952 247.346 364.703 247.107 364.566L241.041 361.063C240.801 360.925 240.371 360.949 240.079 361.118L233.202 365.088C232.911 365.256 232.867 365.506 233.106 365.644L239.172 369.146C239.412 369.284 239.843 369.26 240.134 369.09ZM230.085 374.893L236.961 370.923C237.253 370.754 237.295 370.506 237.056 370.368L230.991 366.866C230.752 366.727 230.321 366.752 230.028 366.92L223.152 370.891C222.86 371.059 222.818 371.308 223.056 371.446L229.123 374.948C229.361 375.086 229.792 375.062 230.085 374.893ZM324.864 319.672C325.102 319.81 325.534 319.786 325.826 319.617L332.702 315.646C332.994 315.478 333.036 315.229 332.798 315.092L326.732 311.59C326.493 311.451 326.062 311.476 325.769 311.644L318.893 315.614C318.601 315.783 318.558 316.032 318.797 316.171L324.864 319.672ZM280.335 345.881L287.212 341.911C287.503 341.742 287.546 341.494 287.308 341.355L281.242 337.853C281.002 337.714 280.571 337.74 280.279 337.908L273.402 341.879C273.111 342.047 273.068 342.296 273.308 342.433L279.373 345.936C279.612 346.074 280.043 346.05 280.335 345.881ZM338.502 301.283L345.379 297.313C345.67 297.144 345.714 296.895 345.474 296.758L339.41 293.255C339.169 293.117 338.738 293.142 338.447 293.31L331.57 297.28C331.277 297.449 331.235 297.697 331.474 297.836L337.54 301.338C337.779 301.477 338.21 301.451 338.502 301.283ZM347.08 306.846C347.318 306.984 347.749 306.958 348.042 306.79L354.917 302.821C355.21 302.651 355.253 302.403 355.014 302.264L348.947 298.762C348.709 298.624 348.278 298.65 347.985 298.818L341.109 302.789C340.817 302.957 340.775 303.206 341.013 303.344L347.08 306.846ZM290.385 340.078L310.486 328.474C310.777 328.304 310.82 328.055 310.582 327.918L304.516 324.415C304.276 324.278 303.846 324.302 303.553 324.471L283.454 336.076C283.16 336.244 283.118 336.493 283.358 336.632L289.423 340.133C289.663 340.271 290.093 340.248 290.385 340.078ZM316.797 302.799L323.673 298.829C323.966 298.661 324.008 298.411 323.769 298.273L317.703 294.771C317.465 294.633 317.033 294.658 316.741 294.827L309.864 298.798C309.572 298.966 309.53 299.215 309.769 299.353L315.834 302.855C316.074 302.993 316.504 302.967 316.797 302.799ZM358.091 300.988L364.968 297.019C365.26 296.849 365.303 296.6 365.064 296.462L358.998 292.96C358.758 292.822 358.329 292.847 358.035 293.016L351.159 296.986C350.868 297.154 350.824 297.403 351.064 297.541L357.129 301.043C357.368 301.181 357.8 301.156 358.091 300.988ZM336.271 317.096C336.032 316.958 335.601 316.983 335.309 317.153L328.432 321.122C328.141 321.291 328.098 321.539 328.337 321.678L334.402 325.179C334.642 325.318 335.073 325.292 335.365 325.124L342.241 321.154C342.534 320.986 342.575 320.737 342.337 320.599L336.271 317.096ZM300.302 337.863C300.063 337.725 299.633 337.75 299.339 337.919L290.876 342.805C290.585 342.974 290.542 343.223 290.781 343.36L296.847 346.863C297.086 347.001 297.517 346.975 297.809 346.807L306.272 341.921C306.564 341.752 306.606 341.503 306.368 341.365L300.302 337.863ZM193.982 399.248C193.743 399.109 193.312 399.134 193.02 399.303L184.556 404.189C184.265 404.357 184.222 404.606 184.461 404.744L190.526 408.247C190.766 408.385 191.197 408.36 191.489 408.192L199.952 403.305C200.245 403.137 200.287 402.888 200.048 402.749L193.982 399.248ZM277.028 351.301C276.789 351.162 276.358 351.188 276.065 351.356L267.602 356.242C267.311 356.411 267.267 356.66 267.507 356.798L273.574 360.3C273.811 360.438 274.242 360.414 274.535 360.245L282.998 355.358C283.29 355.19 283.333 354.942 283.093 354.803L277.028 351.301ZM205.619 392.528C205.38 392.39 204.949 392.416 204.657 392.584L196.193 397.47C195.902 397.639 195.859 397.888 196.098 398.026L202.163 401.528C202.403 401.666 202.834 401.642 203.126 401.472L211.59 396.586C211.882 396.417 211.924 396.17 211.685 396.031L205.619 392.528ZM265.391 358.02C265.152 357.88 264.721 357.906 264.43 358.074L207.831 390.752C207.54 390.921 207.496 391.169 207.735 391.307L213.801 394.809C214.04 394.947 214.47 394.922 214.763 394.754L271.36 362.078C271.654 361.908 271.697 361.66 271.456 361.521L265.391 358.02ZM314.055 329.923C313.816 329.785 313.385 329.81 313.093 329.978L302.514 336.086C302.222 336.255 302.178 336.504 302.418 336.642L308.483 340.144C308.723 340.282 309.154 340.257 309.445 340.089L320.026 333.981C320.317 333.812 320.36 333.564 320.121 333.425L314.055 329.923ZM288.665 344.583C288.427 344.443 287.995 344.469 287.703 344.638L279.24 349.524C278.947 349.692 278.904 349.941 279.145 350.079L285.209 353.581C285.45 353.719 285.88 353.695 286.171 353.527L294.635 348.64C294.927 348.471 294.971 348.221 294.73 348.084L288.665 344.583ZM394.704 290.365L379.098 281.355C378.86 281.217 378.428 281.242 378.136 281.411L371.259 285.381C370.968 285.55 370.925 285.799 371.164 285.936L386.769 294.946C387.009 295.084 387.439 295.059 387.731 294.892L394.608 290.921C394.9 290.753 394.943 290.504 394.704 290.365ZM378.588 292.666C378.348 292.526 377.918 292.552 377.626 292.72L370.749 296.691C370.457 296.859 370.414 297.109 370.654 297.246L376.719 300.748C376.959 300.886 377.389 300.862 377.681 300.693L384.557 296.723C384.85 296.554 384.892 296.306 384.653 296.167L378.588 292.666ZM326.221 322.899C325.981 322.761 325.551 322.785 325.259 322.955L318.383 326.924C318.089 327.094 318.047 327.343 318.287 327.481L324.352 330.982C324.592 331.121 325.022 331.096 325.314 330.927L332.19 326.956C332.483 326.788 332.527 326.539 332.286 326.402L326.221 322.899ZM209.984 386.498L216.86 382.528C217.153 382.359 217.195 382.11 216.956 381.971L210.89 378.47C210.651 378.332 210.221 378.356 209.928 378.525L203.052 382.496C202.76 382.664 202.718 382.913 202.956 383.051L209.022 386.553C209.261 386.691 209.692 386.667 209.984 386.498ZM346.321 311.294C346.082 311.156 345.652 311.18 345.358 311.35L338.482 315.319C338.19 315.489 338.148 315.736 338.387 315.876L344.453 319.377C344.691 319.516 345.123 319.491 345.415 319.322L352.291 315.352C352.583 315.183 352.626 314.934 352.387 314.796L346.321 311.294ZM368.538 298.468C368.298 298.329 367.867 298.355 367.575 298.523L350.649 308.296C350.357 308.464 350.315 308.713 350.553 308.851L356.619 312.353C356.858 312.491 357.289 312.467 357.582 312.298L374.508 302.525C374.799 302.357 374.842 302.108 374.604 301.969L368.538 298.468ZM164.209 367.236C164.449 367.374 164.88 367.35 165.171 367.182L172.048 363.211C172.34 363.043 172.383 362.794 172.143 362.656L166.078 359.154C165.838 359.016 165.407 359.04 165.116 359.209L158.239 363.179C157.948 363.348 157.905 363.596 158.143 363.735L164.209 367.236ZM174.26 361.434C174.499 361.572 174.93 361.547 175.222 361.379L182.098 357.409C182.391 357.24 182.432 356.991 182.194 356.854L176.128 353.351C175.889 353.213 175.458 353.238 175.166 353.406L168.29 357.376C167.997 357.545 167.955 357.793 168.194 357.931L174.26 361.434ZM182.345 405.966C182.106 405.828 181.675 405.852 181.383 406.021L170.804 412.13C170.511 412.298 170.469 412.547 170.708 412.685L176.774 416.187C177.013 416.325 177.443 416.3 177.736 416.131L188.315 410.024C188.608 409.855 188.65 409.607 188.411 409.467L182.345 405.966ZM188.682 353.107C188.922 353.245 189.353 353.22 189.645 353.051L196.521 349.081C196.813 348.913 196.856 348.664 196.617 348.526L190.552 345.024C190.312 344.886 189.881 344.91 189.589 345.079L182.712 349.049C182.42 349.218 182.378 349.467 182.618 349.606L188.682 353.107ZM208.783 341.501C209.023 341.641 209.453 341.616 209.745 341.447L216.622 337.477C216.913 337.308 216.957 337.059 216.718 336.921L210.652 333.419C210.412 333.282 209.981 333.305 209.69 333.474L202.813 337.444C202.521 337.613 202.478 337.861 202.716 338.001L208.783 341.501ZM154.159 373.038C154.398 373.176 154.83 373.153 155.121 372.984L161.997 369.014C162.29 368.845 162.333 368.596 162.094 368.458L156.027 364.956C155.789 364.818 155.358 364.842 155.065 365.011L148.189 368.981C147.897 369.15 147.855 369.399 148.093 369.537L154.159 373.038ZM198.733 347.304C198.972 347.443 199.403 347.418 199.695 347.25L206.571 343.279C206.864 343.111 206.907 342.862 206.666 342.724L200.601 339.222C200.362 339.083 199.931 339.108 199.639 339.276L192.763 343.246C192.47 343.415 192.428 343.664 192.667 343.803L198.733 347.304ZM218.833 335.699C219.071 335.839 219.503 335.813 219.795 335.645L226.671 331.674C226.963 331.506 227.007 331.257 226.767 331.119L220.702 327.617C220.463 327.479 220.031 327.504 219.738 327.672L212.863 331.642C212.571 331.811 212.528 332.059 212.767 332.198L218.833 335.699ZM176.756 405.182L170.689 401.68C170.451 401.542 170.02 401.566 169.728 401.735L161.264 406.621C160.971 406.79 160.929 407.039 161.169 407.177L167.234 410.679C167.474 410.818 167.905 410.792 168.196 410.624L176.66 405.737C176.952 405.569 176.994 405.32 176.756 405.182ZM171.976 396.926L165.912 393.423C165.672 393.286 165.241 393.311 164.949 393.48L151.725 401.114C151.433 401.283 151.39 401.531 151.63 401.669L157.694 405.172C157.934 405.31 158.365 405.285 158.657 405.117L171.881 397.482C172.173 397.312 172.216 397.064 171.976 396.926ZM144.109 378.841C144.348 378.98 144.78 378.954 145.071 378.786L151.948 374.815C152.239 374.647 152.283 374.399 152.043 374.261L145.978 370.758C145.739 370.62 145.307 370.645 145.015 370.813L138.139 374.784C137.847 374.952 137.804 375.201 138.043 375.34L144.109 378.841ZM137.621 382.588L131.555 379.086C131.316 378.948 130.886 378.972 130.593 379.14L122.129 384.027C121.838 384.195 121.794 384.445 122.034 384.583L128.099 388.085C128.339 388.222 128.77 388.198 129.061 388.029L137.525 383.143C137.818 382.975 137.86 382.725 137.621 382.588ZM159.793 392.945L153.727 389.443C153.487 389.306 153.056 389.329 152.765 389.499L142.186 395.607C141.893 395.775 141.85 396.024 142.09 396.162L148.156 399.664C148.395 399.802 148.825 399.778 149.117 399.608L159.697 393.501C159.989 393.332 160.032 393.083 159.793 392.945ZM146.551 389.575L140.485 386.073C140.245 385.936 139.815 385.96 139.522 386.129L132.646 390.099C132.354 390.267 132.312 390.515 132.551 390.655L138.616 394.156C138.855 394.295 139.286 394.27 139.579 394.101L146.454 390.131C146.747 389.962 146.789 389.713 146.551 389.575ZM199.934 392.3L206.811 388.33C207.102 388.162 207.145 387.913 206.907 387.775L200.841 384.273C200.601 384.135 200.17 384.159 199.878 384.328L193.001 388.298C192.71 388.466 192.667 388.715 192.906 388.853L198.971 392.356C199.211 392.493 199.642 392.469 199.934 392.3ZM213.065 354.683L206.189 358.654C205.897 358.823 205.854 359.071 206.094 359.209L212.159 362.712C212.398 362.849 212.83 362.825 213.121 362.657L219.998 358.686C220.289 358.518 220.333 358.269 220.094 358.13L214.028 354.629C213.79 354.491 213.358 354.516 213.065 354.683ZM203.017 360.486L196.14 364.457C195.847 364.625 195.804 364.874 196.043 365.011L202.109 368.514C202.348 368.651 202.779 368.628 203.072 368.459L209.947 364.489C210.24 364.32 210.283 364.071 210.044 363.932L203.977 360.431C203.738 360.294 203.308 360.317 203.017 360.486ZM243.216 337.276L236.34 341.247C236.047 341.415 236.005 341.664 236.244 341.802L242.309 345.305C242.548 345.442 242.979 345.418 243.272 345.249L250.149 341.279C250.441 341.11 250.483 340.862 250.243 340.723L244.178 337.221C243.939 337.082 243.508 337.108 243.216 337.276ZM223.115 348.881L216.239 352.852C215.947 353.02 215.904 353.269 216.143 353.407L222.209 356.909C222.448 357.047 222.88 357.022 223.171 356.854L230.047 352.884C230.34 352.715 230.384 352.466 230.144 352.328L224.078 348.826C223.839 348.687 223.408 348.713 223.115 348.881ZM233.166 343.079L226.289 347.049C225.997 347.218 225.954 347.466 226.194 347.605L232.259 351.107C232.499 351.245 232.929 351.22 233.221 351.051L240.098 347.081C240.391 346.913 240.433 346.664 240.194 346.525L234.128 343.024C233.888 342.885 233.459 342.91 233.166 343.079ZM192.966 366.288L186.089 370.259C185.797 370.427 185.753 370.676 185.994 370.814L192.059 374.317C192.299 374.454 192.73 374.43 193.021 374.261L199.898 370.291C200.189 370.123 200.232 369.874 199.993 369.735L193.928 366.233C193.688 366.096 193.258 366.12 192.966 366.288ZM182.914 372.091L176.039 376.061C175.747 376.229 175.705 376.478 175.943 376.617L182.009 380.119C182.248 380.256 182.679 380.233 182.971 380.063L189.847 376.094C190.14 375.925 190.183 375.676 189.943 375.537L183.877 372.036C183.638 371.899 183.207 371.923 182.914 372.091ZM215.256 372.439L222.131 368.469C222.424 368.3 222.466 368.052 222.228 367.914L216.162 364.411C215.923 364.274 215.492 364.298 215.199 364.468L208.324 368.437C208.031 368.606 207.989 368.854 208.228 368.993L214.293 372.494C214.532 372.633 214.963 372.608 215.256 372.439ZM205.205 378.242L212.082 374.272C212.374 374.103 212.417 373.855 212.178 373.717L206.112 370.214C205.873 370.076 205.441 370.1 205.149 370.27L198.273 374.239C197.981 374.409 197.938 374.656 198.177 374.795L204.243 378.296C204.483 378.436 204.914 378.41 205.205 378.242ZM195.155 384.044L202.031 380.074C202.324 379.906 202.366 379.657 202.128 379.518L196.061 376.017C195.822 375.879 195.392 375.902 195.099 376.073L188.223 380.041C187.931 380.211 187.888 380.46 188.127 380.597L194.194 384.098C194.432 384.237 194.863 384.213 195.155 384.044ZM172.865 377.893L165.988 381.864C165.697 382.032 165.653 382.281 165.892 382.419L171.958 385.921C172.198 386.059 172.629 386.035 172.92 385.866L179.797 381.896C180.089 381.727 180.132 381.479 179.893 381.341L173.827 377.838C173.588 377.7 173.157 377.725 172.865 377.893ZM184.142 389.903C184.382 390.04 184.814 390.015 185.105 389.846L191.982 385.876C192.273 385.708 192.316 385.459 192.076 385.321L186.012 381.819C185.772 381.681 185.341 381.705 185.05 381.874L178.173 385.844C177.881 386.013 177.838 386.262 178.077 386.4L184.142 389.903ZM263.317 325.671L256.44 329.642C256.147 329.811 256.106 330.059 256.345 330.197L262.41 333.699C262.649 333.837 263.08 333.813 263.372 333.645L270.25 329.674C270.541 329.505 270.584 329.257 270.343 329.118L264.278 325.617C264.04 325.478 263.608 325.503 263.317 325.671ZM347.591 295.535C347.829 295.674 348.26 295.649 348.553 295.48L355.429 291.51C355.721 291.341 355.764 291.093 355.525 290.955L349.459 287.452C349.22 287.315 348.789 287.339 348.497 287.507L341.621 291.478C341.328 291.646 341.284 291.895 341.525 292.034L347.591 295.535ZM253.267 331.473L246.389 335.444C246.098 335.613 246.055 335.862 246.295 335.999L252.361 339.501C252.599 339.639 253.03 339.615 253.321 339.447L260.199 335.477C260.491 335.308 260.533 335.059 260.294 334.92L254.228 331.419C253.99 331.28 253.559 331.305 253.267 331.473ZM328.907 287.803L322.031 291.773C321.739 291.941 321.695 292.191 321.934 292.328L328.001 295.83C328.24 295.968 328.671 295.944 328.963 295.775L335.839 291.805C336.131 291.636 336.175 291.388 335.935 291.25L329.87 287.747C329.63 287.61 329.199 287.634 328.907 287.803ZM352.086 274.921L367.691 283.931C367.929 284.069 368.361 284.044 368.653 283.876L375.529 279.906C375.821 279.737 375.863 279.488 375.625 279.35L360.02 270.34C359.78 270.203 359.35 270.227 359.056 270.396L352.181 274.366C351.889 274.534 351.846 274.783 352.086 274.921ZM349.969 276.143C349.73 276.005 349.298 276.029 349.007 276.198L342.13 280.168C341.84 280.336 341.796 280.585 342.035 280.723L348.101 284.225C348.34 284.363 348.771 284.339 349.062 284.171L355.94 280.201C356.231 280.032 356.275 279.783 356.036 279.646L349.969 276.143ZM339.013 289.974L345.889 286.003C346.182 285.834 346.225 285.586 345.984 285.448L339.919 281.946C339.68 281.807 339.249 281.832 338.957 282L332.081 285.97C331.788 286.139 331.745 286.388 331.985 286.526L338.051 290.028C338.289 290.166 338.721 290.141 339.013 289.974ZM358.603 289.678L365.479 285.708C365.771 285.539 365.814 285.29 365.574 285.152L359.509 281.65C359.269 281.512 358.838 281.536 358.547 281.705L351.67 285.675C351.379 285.844 351.335 286.093 351.574 286.231L357.639 289.733C357.88 289.871 358.309 289.846 358.603 289.678ZM235.356 360.834L242.232 356.864C242.524 356.695 242.566 356.447 242.327 356.309L236.262 352.806C236.023 352.668 235.592 352.693 235.3 352.862L228.423 356.832C228.131 357 228.089 357.249 228.328 357.387L234.394 360.889C234.632 361.028 235.064 361.003 235.356 360.834ZM340.43 270.636C340.191 270.497 339.76 270.522 339.467 270.69L332.592 274.66C332.3 274.83 332.256 275.078 332.496 275.216L338.562 278.718C338.8 278.856 339.232 278.832 339.523 278.663L346.4 274.693C346.692 274.525 346.735 274.276 346.496 274.137L340.43 270.636ZM273.422 327.842L280.299 323.872C280.591 323.703 280.633 323.454 280.395 323.315L274.33 319.814C274.09 319.675 273.66 319.701 273.367 319.869L266.491 323.839C266.198 324.008 266.155 324.257 266.395 324.395L272.461 327.897C272.699 328.035 273.131 328.01 273.422 327.842ZM329.418 276.493L322.541 280.463C322.249 280.631 322.207 280.88 322.445 281.019L328.511 284.521C328.75 284.658 329.181 284.635 329.474 284.465L336.351 280.496C336.642 280.327 336.685 280.078 336.445 279.939L330.381 276.438C330.141 276.3 329.71 276.324 329.418 276.493ZM307.201 289.319L300.325 293.289C300.033 293.457 299.991 293.706 300.229 293.845L306.295 297.347C306.534 297.486 306.965 297.46 307.257 297.292L314.134 293.322C314.426 293.153 314.468 292.904 314.23 292.766L308.163 289.264C307.925 289.126 307.493 289.151 307.201 289.319ZM319.368 282.295L312.491 286.266C312.199 286.434 312.156 286.683 312.395 286.821L318.462 290.323C318.701 290.461 319.132 290.437 319.423 290.267L326.3 286.298C326.593 286.128 326.635 285.881 326.396 285.742L320.33 282.241C320.091 282.101 319.66 282.127 319.368 282.295ZM225.305 366.637L232.182 362.666C232.474 362.498 232.517 362.249 232.278 362.111L226.212 358.609C225.972 358.471 225.541 358.495 225.25 358.665L218.373 362.634C218.081 362.804 218.039 363.051 218.277 363.191L224.343 366.692C224.583 366.831 225.014 366.806 225.305 366.637ZM179.723 362.918L172.847 366.889C172.555 367.057 172.512 367.306 172.751 367.445L178.817 370.947C179.056 371.085 179.487 371.06 179.779 370.891L186.656 366.921C186.948 366.753 186.991 366.503 186.751 366.365L180.685 362.863C180.446 362.726 180.016 362.75 179.723 362.918ZM189.774 357.116L182.897 361.087C182.605 361.255 182.562 361.504 182.802 361.642L188.867 365.144C189.106 365.283 189.538 365.257 189.829 365.089L196.706 361.119C196.997 360.95 197.041 360.701 196.802 360.563L190.736 357.061C190.496 356.923 190.066 356.948 189.774 357.116ZM199.823 351.313L192.948 355.284C192.655 355.452 192.612 355.701 192.851 355.84L198.918 359.341C199.156 359.48 199.587 359.455 199.88 359.286L206.755 355.316C207.048 355.148 207.092 354.899 206.852 354.761L200.785 351.259C200.547 351.121 200.116 351.145 199.823 351.313ZM219.923 339.708L213.047 343.679C212.755 343.847 212.713 344.096 212.952 344.235L219.018 347.737C219.256 347.875 219.687 347.851 219.98 347.681L226.855 343.711C227.148 343.543 227.191 343.294 226.952 343.156L220.886 339.653C220.647 339.516 220.216 339.54 219.923 339.708ZM169.673 368.722L162.796 372.691C162.505 372.859 162.462 373.109 162.702 373.247L168.767 376.749C169.006 376.888 169.437 376.863 169.729 376.693L176.605 372.724C176.897 372.555 176.94 372.306 176.701 372.169L170.636 368.666C170.396 368.528 169.965 368.552 169.673 368.722ZM209.874 345.511L202.997 349.481C202.706 349.65 202.662 349.898 202.902 350.037L208.966 353.539C209.207 353.678 209.637 353.653 209.929 353.484L216.806 349.514C217.097 349.345 217.14 349.096 216.902 348.959L210.836 345.456C210.596 345.318 210.166 345.343 209.874 345.511ZM159.622 374.523L152.747 378.493C152.454 378.662 152.412 378.911 152.651 379.05L158.717 382.551C158.956 382.69 159.386 382.665 159.679 382.496L166.555 378.526C166.847 378.357 166.891 378.109 166.651 377.971L160.585 374.469C160.346 374.33 159.915 374.355 159.622 374.523ZM178.872 403.96C179.111 404.098 179.541 404.074 179.834 403.906L186.71 399.935C187.002 399.767 187.045 399.518 186.805 399.38L180.74 395.878C180.5 395.74 180.07 395.764 179.778 395.933L172.901 399.903C172.61 400.072 172.566 400.32 172.806 400.458L178.872 403.96ZM189.884 398.103L196.76 394.133C197.053 393.964 197.095 393.716 196.856 393.578L190.79 390.075C190.551 389.937 190.12 389.962 189.828 390.13L182.952 394.1C182.66 394.269 182.616 394.518 182.856 394.656L188.922 398.158C189.161 398.296 189.592 398.272 189.884 398.103ZM161.908 391.724C162.147 391.862 162.578 391.837 162.871 391.669L169.747 387.698C170.039 387.53 170.081 387.281 169.842 387.144L163.777 383.641C163.538 383.503 163.107 383.528 162.814 383.696L155.938 387.666C155.646 387.835 155.604 388.084 155.843 388.221L161.908 391.724ZM149.573 380.327L142.696 384.296C142.405 384.464 142.361 384.714 142.6 384.852L148.666 388.353C148.906 388.492 149.337 388.467 149.628 388.298L156.505 384.328C156.797 384.16 156.84 383.911 156.601 383.773L150.535 380.271C150.295 380.133 149.865 380.157 149.573 380.327ZM174.093 395.705C174.332 395.843 174.763 395.818 175.055 395.649L181.931 391.678C182.223 391.51 182.266 391.261 182.027 391.123L175.961 387.621C175.722 387.484 175.291 387.509 174.999 387.677L168.123 391.646C167.83 391.816 167.789 392.064 168.027 392.203L174.093 395.705ZM229.974 333.906L223.097 337.876C222.805 338.045 222.762 338.294 223.002 338.433L229.067 341.934C229.307 342.073 229.738 342.047 230.029 341.879L236.906 337.909C237.199 337.741 237.241 337.491 237.002 337.354L230.936 333.851C230.698 333.713 230.266 333.738 229.974 333.906ZM240.025 328.103L233.148 332.074C232.856 332.243 232.813 332.492 233.052 332.63L239.118 336.132C239.357 336.27 239.788 336.245 240.08 336.077L246.957 332.107C247.248 331.938 247.292 331.689 247.052 331.551L240.986 328.049C240.747 327.911 240.317 327.935 240.025 328.103ZM285.606 331.822L300.946 322.965C301.239 322.796 301.281 322.548 301.042 322.41L285.437 313.401C285.197 313.263 284.767 313.287 284.475 313.455L276.541 318.037C276.248 318.206 276.206 318.454 276.444 318.592L285.118 323.599C285.357 323.738 285.314 323.987 285.021 324.155L278.675 327.82C278.382 327.988 278.339 328.237 278.58 328.375L284.644 331.877C284.883 332.016 285.315 331.99 285.606 331.822ZM296.697 314.404L303.573 310.435C303.865 310.265 303.907 310.016 303.669 309.879L297.603 306.376C297.364 306.238 296.933 306.264 296.641 306.432L289.764 310.402C289.473 310.571 289.429 310.82 289.669 310.957L295.735 314.46C295.973 314.598 296.405 314.572 296.697 314.404ZM245.406 355.032L252.283 351.062C252.574 350.893 252.617 350.644 252.378 350.506L246.312 347.004C246.072 346.867 245.642 346.89 245.35 347.06L238.474 351.029C238.182 351.198 238.138 351.446 238.378 351.585L244.444 355.086C244.683 355.225 245.114 355.201 245.406 355.032ZM255.456 349.23L262.332 345.259C262.625 345.091 262.668 344.842 262.428 344.704L256.362 341.202C256.123 341.064 255.692 341.088 255.4 341.256L248.524 345.227C248.231 345.395 248.19 345.644 248.428 345.783L254.494 349.284C254.733 349.423 255.164 349.398 255.456 349.23ZM265.507 343.427L272.383 339.457C272.676 339.288 272.718 339.04 272.478 338.901L266.413 335.399C266.173 335.262 265.743 335.285 265.451 335.454L258.574 339.424C258.282 339.593 258.239 339.842 258.479 339.98L264.544 343.482C264.784 343.621 265.215 343.596 265.507 343.427ZM275.557 337.625L282.433 333.654C282.724 333.486 282.768 333.237 282.529 333.099L276.462 329.597C276.224 329.459 275.793 329.483 275.5 329.652L268.624 333.622C268.332 333.791 268.29 334.039 268.528 334.178L274.595 337.68C274.833 337.819 275.264 337.793 275.557 337.625ZM250.075 322.301L243.198 326.271C242.906 326.44 242.863 326.689 243.102 326.828L249.169 330.329C249.408 330.468 249.838 330.443 250.13 330.274L257.007 326.304C257.3 326.135 257.342 325.887 257.103 325.749L251.037 322.247C250.798 322.109 250.367 322.132 250.075 322.301ZM260.125 316.499L253.249 320.469C252.956 320.638 252.914 320.886 253.152 321.025L259.218 324.527C259.457 324.666 259.888 324.64 260.181 324.472L267.058 320.501C267.349 320.333 267.392 320.084 267.151 319.947L261.088 316.444C260.848 316.306 260.416 316.331 260.125 316.499ZM287.101 300.924L280.225 304.894C279.933 305.062 279.889 305.312 280.13 305.45L286.196 308.952C286.433 309.09 286.865 309.065 287.157 308.897L294.033 304.926C294.325 304.758 294.369 304.509 294.129 304.371L288.063 300.869C287.825 300.731 287.393 300.755 287.101 300.924ZM274.935 307.949L263.299 314.667C263.006 314.835 262.963 315.085 263.203 315.223L269.269 318.724C269.508 318.862 269.939 318.838 270.23 318.669L281.867 311.951C282.16 311.783 282.203 311.533 281.963 311.395L275.897 307.893C275.659 307.755 275.227 307.78 274.935 307.949ZM297.152 295.121L290.275 299.091C289.983 299.26 289.94 299.509 290.179 299.648L296.245 303.149C296.485 303.288 296.916 303.263 297.206 303.095L304.083 299.124C304.376 298.955 304.419 298.706 304.18 298.569L298.114 295.066C297.874 294.928 297.443 294.953 297.152 295.121ZM306.746 308.601L313.623 304.631C313.915 304.463 313.958 304.214 313.719 304.076L307.653 300.573C307.413 300.436 306.983 300.462 306.691 300.63L299.814 304.6C299.521 304.768 299.479 305.017 299.719 305.155L305.784 308.658C306.024 308.795 306.454 308.77 306.746 308.601Z" fill="#375A64"/>
<path d="M264.025 379.272L265.436 380.085L302.885 401.703L369.485 363.25L370.871 362.461L332.012 340.029L264.025 379.272Z" fill="#1A2E35"/>
<path d="M368.865 363.609L332.013 342.348L266.057 380.443L302.886 401.702L368.865 363.609Z" fill="#2B454E"/>
</g>
<mask id="mask9_2490_10092" style="mask-type:luminance" maskUnits="userSpaceOnUse" x="0" y="0" width="532" height="532">
<path d="M0 6.10352e-05H532V532H0V6.10352e-05Z" fill="white"/>
</mask>
<g mask="url(#mask9_2490_10092)">
<path d="M410.936 67.4825C410.936 64.6789 409.957 62.7041 408.374 61.772C406.77 60.8304 397.489 55.4763 395.876 54.5581C394.277 53.6473 392.074 53.7856 389.643 55.1901L215.938 155.479L215.94 212.966L228.386 220.152L402.091 119.863C406.975 117.044 410.936 110.184 410.936 104.544V67.4825Z" fill="#2F9DC0"/>
<mask id="mask10_2490_10092" style="mask-type:luminance" maskUnits="userSpaceOnUse" x="215" y="53" width="196" height="168">
<path d="M215.939 53.9822H410.937V220.151H215.939V53.9822Z" fill="white"/>
</mask>
<g mask="url(#mask10_2490_10092)">
<g opacity="0.149994">
<path d="M410.937 67.4828C410.937 64.6791 409.958 62.7043 408.374 61.7723C406.771 60.8306 397.49 55.4766 395.877 54.5583C394.278 53.6476 392.075 53.7859 389.644 55.1904L215.939 155.479L215.941 212.967L228.387 220.152L402.092 119.863C406.976 117.044 410.937 110.184 410.937 104.544V67.4828Z" fill="black"/>
</g>
</g>
<path d="M402.09 62.3756C406.975 59.5549 410.935 61.8414 410.935 67.4828V104.543C410.935 110.184 406.976 117.043 402.09 119.863L228.387 220.152L228.386 162.663L402.09 62.3756Z" fill="#2F9DC0"/>
<path d="M400.308 115.13C403.587 113.236 406.27 108.589 406.27 104.801V70.5651C406.27 67.8668 404.358 66.7624 402.021 68.1126L231.884 166.411V212.44L400.308 115.13Z" fill="#FAFAFA"/>
<path d="M261.536 184.046C261.536 184.31 261.474 184.573 261.349 184.835C261.225 185.1 261.077 185.28 260.905 185.379L257.968 187.076C257.795 187.174 257.649 187.165 257.524 187.043C257.4 186.925 257.338 186.735 257.338 186.47V177.383C257.338 176.355 257.174 175.622 256.848 175.188C256.521 174.756 256.009 174.739 255.308 175.145C254.608 175.548 254.099 176.154 253.78 176.959C253.462 177.767 253.302 178.685 253.302 179.714V188.8C253.302 189.064 253.239 189.327 253.115 189.59C252.991 189.853 252.844 190.034 252.672 190.133L249.732 191.829C249.561 191.929 249.413 191.919 249.29 191.798C249.164 191.679 249.103 191.489 249.103 191.225V167.665C249.103 167.401 249.164 167.138 249.29 166.875C249.413 166.611 249.561 166.431 249.732 166.332L252.672 164.635C252.844 164.536 252.991 164.547 253.115 164.666C253.239 164.786 253.302 164.977 253.302 165.24V172.89C253.566 172.235 253.978 171.512 254.539 170.723C255.098 169.931 255.743 169.327 256.474 168.904C257.22 168.473 257.905 168.239 258.527 168.203C259.149 168.168 259.682 168.357 260.126 168.772C260.568 169.186 260.914 169.838 261.162 170.723C261.412 171.608 261.536 172.758 261.536 174.17V184.046Z" fill="#375A64"/>
<path d="M269.607 173.067C269.607 173.617 269.685 173.998 269.84 174.206C269.995 174.415 270.252 174.417 270.61 174.211L272.476 173.133C272.647 173.036 272.795 173.046 272.919 173.164C273.043 173.285 273.105 173.475 273.105 173.739V177.367C273.105 177.63 273.043 177.893 272.919 178.156C272.795 178.42 272.647 178.601 272.476 178.7L270.26 179.979C269.529 180.401 268.864 180.622 268.265 180.646C267.667 180.668 267.158 180.496 266.737 180.127C266.318 179.759 265.992 179.205 265.758 178.467C265.525 177.727 265.408 176.807 265.408 175.706V169.671L263.683 170.669C263.511 170.767 263.363 170.758 263.239 170.637C263.114 170.518 263.053 170.325 263.053 170.061V166.435C263.053 166.171 263.114 165.908 263.239 165.646C263.363 165.383 263.511 165.201 263.683 165.101L265.408 164.106V158.252C265.408 157.988 265.47 157.725 265.595 157.461C265.719 157.198 265.866 157.018 266.038 156.918L268.977 155.222C269.147 155.121 269.295 155.134 269.421 155.252C269.544 155.373 269.607 155.564 269.607 155.826V161.68L272.244 160.16C272.414 160.061 272.561 160.072 272.687 160.19C272.811 160.311 272.872 160.502 272.872 160.765V164.392C272.872 164.657 272.811 164.92 272.687 165.182C272.561 165.447 272.414 165.626 272.244 165.725L269.607 167.248V173.067Z" fill="#375A64"/>
<path d="M280.664 166.683C280.664 167.233 280.74 167.614 280.897 167.823C281.052 168.032 281.308 168.033 281.667 167.828L283.532 166.75C283.702 166.652 283.85 166.662 283.976 166.78C284.099 166.901 284.162 167.093 284.162 167.355V170.984C284.162 171.247 284.099 171.51 283.976 171.772C283.85 172.037 283.702 172.218 283.532 172.316L281.317 173.596C280.586 174.018 279.921 174.239 279.322 174.262C278.724 174.284 278.214 174.112 277.794 173.744C277.375 173.377 277.048 172.822 276.815 172.084C276.582 171.343 276.465 170.423 276.465 169.322V163.288L274.739 164.285C274.568 164.384 274.42 164.374 274.296 164.253C274.171 164.135 274.109 163.943 274.109 163.678V160.051C274.109 159.788 274.171 159.525 274.296 159.261C274.42 159 274.568 158.817 274.739 158.718L276.465 157.722V151.868C276.465 151.605 276.527 151.342 276.651 151.077C276.776 150.815 276.923 150.634 277.095 150.535L280.034 148.837C280.204 148.739 280.352 148.75 280.477 148.868C280.601 148.99 280.664 149.18 280.664 149.443V155.298L283.3 153.775C283.47 153.678 283.617 153.688 283.744 153.807C283.867 153.927 283.929 154.118 283.929 154.382V158.008C283.929 158.273 283.867 158.536 283.744 158.799C283.617 159.064 283.47 159.242 283.3 159.342L280.664 160.864V166.683Z" fill="#375A64"/>
<path d="M294.519 157.641C294.565 156.945 294.565 156.273 294.519 155.631C294.472 154.82 294.294 154.193 293.982 153.748C293.671 153.307 293.151 153.295 292.42 153.716C292.077 153.915 291.783 154.17 291.534 154.48C291.285 154.791 291.078 155.134 290.916 155.502C290.752 155.872 290.624 156.25 290.53 156.641C290.437 157.03 290.374 157.412 290.344 157.789C290.312 158.166 290.297 158.594 290.297 159.074C290.297 159.553 290.312 159.962 290.344 160.303C290.374 160.644 290.437 160.955 290.53 161.238C290.624 161.519 290.752 161.749 290.916 161.931C291.078 162.112 291.285 162.215 291.534 162.237C291.783 162.263 292.077 162.175 292.42 161.977C293.151 161.556 293.671 160.943 293.982 160.143C294.294 159.341 294.472 158.506 294.519 157.641ZM293.469 166.938C293.019 167.198 292.622 167.356 292.281 167.41C291.937 167.463 291.642 167.455 291.393 167.384C291.144 167.31 290.935 167.198 290.763 167.046C290.593 166.893 290.453 166.741 290.344 166.588V174.238C290.344 174.501 290.281 174.765 290.157 175.027C290.032 175.291 289.886 175.472 289.714 175.571L286.774 177.268C286.604 177.366 286.456 177.355 286.332 177.235C286.207 177.117 286.145 176.925 286.145 176.662V153.101C286.145 152.84 286.207 152.576 286.332 152.312C286.456 152.05 286.604 151.867 286.774 151.769L289.597 150.139C289.767 150.04 289.916 150.052 290.041 150.171C290.164 150.29 290.227 150.482 290.227 150.746V151.571C290.366 151.252 290.519 150.913 290.682 150.556C290.845 150.197 291.046 149.848 291.288 149.505C291.528 149.163 291.825 148.824 292.174 148.49C292.524 148.156 292.956 147.842 293.469 147.545C294.169 147.142 294.83 146.922 295.452 146.885C296.075 146.848 296.62 147.038 297.085 147.452C297.553 147.863 297.928 148.503 298.217 149.366C298.504 150.229 298.664 151.359 298.694 152.751C298.709 153.101 298.718 153.583 298.718 154.193C298.718 154.804 298.709 155.292 298.694 155.661C298.664 157.091 298.504 158.406 298.217 159.601C297.928 160.797 297.553 161.87 297.085 162.821C296.62 163.773 296.075 164.596 295.452 165.29C294.83 165.984 294.169 166.534 293.469 166.938Z" fill="#375A64"/>
<path d="M305.178 158.85C305.178 159.114 305.115 159.375 304.992 159.638C304.867 159.903 304.719 160.084 304.548 160.182L301.493 161.946C301.321 162.046 301.173 162.035 301.049 161.915C300.925 161.795 300.863 161.604 300.863 161.341V156.636C300.863 156.373 300.925 156.109 301.049 155.845C301.173 155.583 301.321 155.402 301.493 155.302L304.548 153.538C304.719 153.44 304.867 153.451 304.992 153.569C305.115 153.689 305.178 153.881 305.178 154.145V158.85ZM305.178 146.28C305.178 146.544 305.115 146.806 304.992 147.069C304.867 147.333 304.719 147.514 304.548 147.613L301.493 149.377C301.321 149.475 301.173 149.465 301.049 149.344C300.925 149.226 300.863 149.034 300.863 148.771V144.065C300.863 143.803 300.925 143.541 301.049 143.276C301.173 143.012 301.321 142.831 301.493 142.733L304.548 140.969C304.719 140.87 304.867 140.881 304.992 141C305.115 141.12 305.178 141.313 305.178 141.575V146.28Z" fill="#375A64"/>
<path d="M314.883 127.065C314.96 126.758 315.078 126.446 315.232 126.128C315.388 125.811 315.614 125.567 315.91 125.396L318.802 123.725C318.94 123.644 319.062 123.653 319.163 123.751C319.264 123.849 319.315 124.004 319.315 124.22C319.315 124.316 319.299 124.432 319.268 124.571L311.407 158.163C311.345 158.437 311.235 158.74 311.082 159.069C310.925 159.399 310.692 159.652 310.382 159.832L307.535 161.475C307.395 161.556 307.275 161.547 307.174 161.45C307.071 161.355 307.021 161.196 307.021 160.982C307.021 160.886 307.037 160.769 307.068 160.631L314.883 127.065Z" fill="#375A64"/>
<path d="M322.883 122.445C322.961 122.138 323.078 121.826 323.233 121.508C323.389 121.191 323.614 120.947 323.91 120.776L326.803 119.106C326.941 119.025 327.063 119.033 327.164 119.131C327.265 119.229 327.315 119.384 327.315 119.601C327.315 119.696 327.3 119.812 327.268 119.951L319.408 153.543C319.345 153.817 319.236 154.121 319.082 154.449C318.925 154.779 318.692 155.033 318.383 155.212L315.535 156.855C315.396 156.936 315.276 156.928 315.175 156.831C315.072 156.735 315.022 156.576 315.022 156.363C315.022 156.267 315.037 156.15 315.069 156.011L322.883 122.445Z" fill="#375A64"/>
<path d="M338.302 122.019C338.535 121.885 338.714 121.88 338.838 121.998C338.962 122.117 339.048 122.261 339.095 122.425L340.82 129.58L342.547 120.432C342.593 120.214 342.678 119.972 342.804 119.708C342.928 119.446 343.107 119.246 343.34 119.112L346.232 117.442C346.388 117.352 346.52 117.359 346.629 117.464C346.738 117.569 346.792 117.741 346.792 117.98C346.792 118.076 346.785 118.176 346.769 118.281L343.06 137.051C343.013 137.292 342.932 137.543 342.815 137.801C342.698 138.06 342.524 138.258 342.29 138.393L339.631 139.928C339.398 140.062 339.226 140.066 339.118 139.936C339.009 139.808 338.923 139.653 338.86 139.473L337.205 132.889L335.549 141.386C335.487 141.636 335.4 141.891 335.293 142.145C335.183 142.399 335.012 142.594 334.778 142.729L332.119 144.263C331.887 144.399 331.713 144.404 331.594 144.279C331.478 144.156 331.398 143.998 331.351 143.81L327.641 129.324C327.626 129.237 327.617 129.146 327.617 129.05C327.617 128.812 327.673 128.576 327.781 128.345C327.89 128.115 328.022 127.954 328.177 127.865L331.07 126.195C331.304 126.06 331.482 126.054 331.607 126.173C331.731 126.292 331.816 126.435 331.863 126.6L333.588 133.755L335.315 124.607C335.362 124.389 335.447 124.147 335.573 123.884C335.697 123.621 335.876 123.42 336.108 123.286L338.302 122.019Z" fill="#375A64"/>
<path d="M358.503 110.357C358.737 110.222 358.915 110.216 359.039 110.335C359.164 110.454 359.249 110.598 359.296 110.762L361.021 117.917L362.748 108.768C362.794 108.551 362.88 108.309 363.005 108.046C363.13 107.782 363.309 107.582 363.541 107.447L366.434 105.779C366.589 105.688 366.722 105.696 366.831 105.8C366.939 105.906 366.993 106.078 366.993 106.317C366.993 106.412 366.986 106.512 366.971 106.617L363.262 125.386C363.215 125.629 363.133 125.88 363.016 126.139C362.9 126.398 362.726 126.594 362.492 126.729L359.832 128.264C359.599 128.4 359.429 128.402 359.32 128.272C359.211 128.144 359.125 127.99 359.063 127.811L357.407 121.225L355.75 129.723C355.688 129.974 355.601 130.227 355.494 130.482C355.385 130.737 355.214 130.93 354.98 131.065L352.321 132.601C352.088 132.736 351.914 132.741 351.797 132.615C351.68 132.493 351.599 132.335 351.552 132.148L347.842 117.662C347.828 117.574 347.819 117.483 347.819 117.387C347.819 117.148 347.875 116.914 347.983 116.683C348.091 116.452 348.224 116.292 348.379 116.203L351.272 114.531C351.505 114.396 351.684 114.391 351.808 114.51C351.933 114.629 352.018 114.773 352.065 114.937L353.791 122.092L355.517 112.943C355.564 112.725 355.648 112.484 355.775 112.22C355.898 111.956 356.077 111.758 356.31 111.622L358.503 110.357Z" fill="#375A64"/>
<path d="M378.704 98.6944C378.937 98.5593 379.116 98.5529 379.24 98.6721C379.364 98.7923 379.45 98.9349 379.497 99.0988L381.223 106.254L382.95 97.1048C382.995 96.8878 383.08 96.6452 383.206 96.3824C383.33 96.1196 383.509 95.9206 383.742 95.7855L386.634 94.115C386.791 94.0245 386.923 94.0341 387.031 94.1373C387.141 94.2427 387.194 94.4161 387.194 94.6544C387.194 94.7502 387.187 94.8502 387.172 94.9534L383.462 113.723C383.416 113.967 383.335 114.217 383.218 114.476C383.101 114.735 382.926 114.931 382.692 115.066L380.033 116.602C379.8 116.737 379.629 116.739 379.52 116.61C379.412 116.481 379.326 116.327 379.263 116.148L377.607 109.563L375.952 118.06C375.889 118.311 375.803 118.566 375.695 118.819C375.586 119.073 375.414 119.268 375.18 119.403L372.521 120.938C372.289 121.072 372.115 121.078 371.997 120.953C371.881 120.83 371.8 120.672 371.753 120.484L368.043 105.998C368.028 105.912 368.02 105.82 368.02 105.724C368.02 105.486 368.075 105.251 368.183 105.02C368.292 104.79 368.424 104.629 368.579 104.539L371.472 102.87C371.706 102.734 371.884 102.728 372.01 102.846C372.133 102.967 372.218 103.109 372.265 103.274L373.991 110.429L375.718 101.28C375.764 101.062 375.85 100.82 375.975 100.557C376.1 100.295 376.278 100.095 376.51 99.9595L378.704 98.6944Z" fill="#375A64"/>
<path d="M392.351 108.521C392.351 108.785 392.288 109.048 392.163 109.311C392.04 109.574 391.891 109.755 391.721 109.854L388.665 111.618C388.494 111.717 388.346 111.707 388.221 111.587C388.097 111.467 388.035 111.277 388.035 111.013V106.308C388.035 106.045 388.097 105.781 388.221 105.517C388.346 105.254 388.494 105.074 388.665 104.975L391.721 103.21C391.891 103.112 392.04 103.122 392.163 103.242C392.288 103.362 392.351 103.553 392.351 103.816V108.521Z" fill="#375A64"/>
<path d="M220.72 145.93L220.722 145.926L220.639 145.875C220.635 145.874 220.633 145.872 220.63 145.87L199.344 133.233C199.337 133.228 199.331 133.225 199.325 133.221L199.207 133.15L199.205 133.155C189.83 127.503 177.32 128.394 163.865 137.179C136.834 154.829 116.235 197.639 117.857 232.796C118.666 250.32 124.845 262.633 134.184 268.393L134.182 268.397L134.265 268.447C134.268 268.449 134.272 268.451 134.275 268.453L155.565 281.093C155.569 281.096 155.572 281.098 155.574 281.099L155.673 281.159L155.675 281.154C165.053 286.822 177.573 285.937 191.039 277.144C218.071 259.494 238.67 216.684 237.048 181.526C236.239 164.001 230.06 151.69 220.72 145.93Z" fill="#2B454E"/>
<path d="M154.882 280.66L134.281 268.452H134.266L134.176 268.389C124.841 262.616 118.665 250.304 117.858 232.803C117.134 217.124 120.839 199.931 127.543 184.137L127.678 183.79L148.837 196.773C142.117 212.568 138.427 229.76 139.151 245.439C139.943 262.589 145.877 274.742 154.882 280.66Z" fill="#1A2E35"/>
<path d="M191.04 277.145C218.071 259.495 238.67 216.685 237.047 181.526C235.426 146.368 212.196 132.175 185.165 149.825C158.133 167.476 137.534 210.285 139.157 245.444C140.78 280.601 164.009 294.794 191.04 277.145Z" fill="#375A64"/>
<path d="M204.081 163.642C200.007 163.642 195.542 164.987 190.96 167.653C171.891 178.745 156.378 208.695 156.378 234.416C156.378 247.602 160.519 257.547 167.737 261.698C173.527 265.026 181.048 264.345 188.912 259.768C207.98 248.675 223.492 218.725 223.492 193.005C223.492 179.819 219.353 169.875 212.134 165.722C209.718 164.332 206.999 163.642 204.081 163.642ZM175.784 267.86C172.168 267.86 168.767 266.985 165.708 265.226C157.192 260.328 152.308 249.098 152.308 234.416C152.308 207.404 168.728 175.876 188.912 164.135C198.09 158.795 207.059 158.108 214.164 162.195C222.678 167.092 227.563 178.322 227.563 193.005C227.563 220.016 211.143 251.543 190.96 263.286C185.732 266.328 180.571 267.86 175.784 267.86Z" fill="#2F9DC0"/>
<path d="M175.778 200.317C171.303 200.317 167.183 198.923 163.624 196.135L165.507 193.734C171.725 198.607 180.13 198.395 189.167 193.136C198.533 187.687 207.333 177.596 213.946 164.722L216.662 166.116C209.785 179.504 200.566 190.037 190.703 195.775C185.5 198.801 180.446 200.317 175.778 200.317Z" fill="#2F9DC0"/>
<path d="M165.925 262.698L163.209 261.303C170.085 247.917 179.304 237.384 189.168 231.645C199.363 225.718 208.977 225.59 216.246 231.284L214.363 233.686C208.144 228.815 199.74 229.029 190.704 234.285C181.336 239.733 172.537 249.824 165.925 262.698Z" fill="#2F9DC0"/>
<path d="M193.868 166.254C192.852 166.254 191.802 166.573 190.703 167.213C181.267 172.702 173.296 198.834 173.296 224.277C173.296 245.239 178.368 257.54 183.393 260.431C185.217 261.481 187.108 261.407 189.167 260.208C198.603 254.719 206.573 228.587 206.573 203.143C206.573 182.18 201.502 169.879 196.476 166.988C195.625 166.499 194.76 166.254 193.868 166.254ZM185.995 264.218C184.581 264.218 183.194 263.838 181.873 263.077C174.698 258.951 170.243 244.084 170.243 224.277C170.243 196.972 178.555 170.747 189.167 164.574C192.171 162.827 195.222 162.746 197.999 164.342C205.171 168.468 209.627 183.336 209.627 203.143C209.627 230.447 201.314 256.672 190.703 262.846C189.131 263.76 187.547 264.218 185.995 264.218Z" fill="#2F9DC0"/>
<path d="M191.462 261.527H188.409V165.894H191.462V261.527Z" fill="#2F9DC0"/>
<path d="M155.111 235.735L153.575 233.097L224.76 191.686L226.295 194.324L155.111 235.735Z" fill="#2F9DC0"/>
</g>
<mask id="mask11_2490_10092" style="mask-type:luminance" maskUnits="userSpaceOnUse" x="0" y="0" width="532" height="532">
<path d="M0 6.10352e-05H532V532H0V6.10352e-05Z" fill="white"/>
</mask>
<g mask="url(#mask11_2490_10092)">
<path d="M438.997 146.282C438.643 145.544 438.203 145.079 437.727 144.801L437.734 144.799L434.563 142.967V142.976C433.183 142.183 431.497 142.967 430.605 143.515L428.626 142.372C426.224 140.922 422.886 143.956 422.138 144.685L421.283 144.191V144.193C420.153 143.511 418.616 143.942 417.252 144.63V133.101C417.252 131.837 416.819 130.943 416.116 130.504L416.12 130.503L416.087 130.483C416.069 130.473 416.052 130.462 416.033 130.453L412.92 128.653C412.918 128.651 412.915 128.65 412.913 128.649L412.892 128.636L412.891 128.637C412.155 128.229 411.15 128.294 410.039 128.935C407.791 130.233 405.968 133.39 405.968 135.986V171.303C405.807 171.224 405.645 171.148 405.483 171.077C402.701 169.116 399.782 167.951 397.203 168.41C394.741 168.847 392.544 170.943 391.904 172.069C390.558 174.441 392.779 175.931 395.641 179.204C398.477 182.447 400.979 186.353 403.563 188.763C406.146 191.173 408.019 191.8 408.019 191.8V196.419L411.162 198.235L435.08 184.425V179.805C435.08 179.805 438.049 167.972 438.997 163.027C439.945 158.082 440.822 150.074 438.997 146.282Z" fill="#2F9DC0"/>
<mask id="mask12_2490_10092" style="mask-type:luminance" maskUnits="userSpaceOnUse" x="391" y="128" width="50" height="71">
<path d="M391.501 128.381H440.061V198.235H391.501V128.381Z" fill="white"/>
</mask>
<g mask="url(#mask12_2490_10092)">
<g opacity="0.800003">
<path d="M438.997 146.281C438.643 145.544 438.203 145.079 437.727 144.8L437.734 144.799L434.563 142.967V142.976C433.183 142.183 431.497 142.967 430.605 143.515L428.626 142.372C426.224 140.922 422.886 143.955 422.138 144.684L421.283 144.191V144.193C420.153 143.511 418.616 143.942 417.252 144.63V133.101C417.252 131.837 416.819 130.943 416.116 130.503L416.12 130.502L416.087 130.483C416.069 130.472 416.052 130.462 416.033 130.452L412.92 128.653C412.918 128.651 412.915 128.65 412.913 128.649L412.892 128.636L412.891 128.637C412.155 128.229 411.15 128.293 410.039 128.935C407.791 130.233 405.968 133.39 405.968 135.986V171.302C405.807 171.224 405.645 171.148 405.483 171.077C402.701 169.116 399.782 167.951 397.203 168.409C394.741 168.847 392.544 170.943 391.904 172.068C390.558 174.441 392.779 175.931 395.641 179.204C398.477 182.447 400.979 186.353 403.563 188.763C406.146 191.173 408.019 191.799 408.019 191.799V196.419L411.162 198.234L435.08 184.425V179.805C435.08 179.805 438.049 167.972 438.997 163.027C439.945 158.082 440.822 150.073 438.997 146.281Z" fill="white"/>
</g>
</g>
<mask id="mask13_2490_10092" style="mask-type:luminance" maskUnits="userSpaceOnUse" x="391" y="135" width="44" height="64">
<path d="M391.501 135.987H434.936V198.237H391.501V135.987Z" fill="white"/>
</mask>
<g mask="url(#mask13_2490_10092)">
<g opacity="0.199997">
<path d="M406.704 190.576C404.12 188.168 401.618 184.264 398.787 181.017C396.101 177.944 393.971 176.442 394.845 174.304L391.701 172.487C390.825 174.624 392.948 176.128 395.642 179.207C398.48 182.447 400.975 186.351 403.558 188.766C406.149 191.174 408.016 191.801 408.016 191.801V196.42L411.162 198.238V193.619C411.162 193.619 409.287 192.991 406.704 190.576ZM417.24 144.663L417.255 144.67V144.634L417.24 144.663ZM405.967 135.987V171.305C407.017 171.815 408.075 172.479 409.112 173.245V137.804L405.967 135.987ZM424.261 143.006C423.26 143.634 422.458 144.371 422.137 144.685L424.208 145.889C424.245 145.911 424.289 145.926 424.325 145.955C424.626 146.108 424.896 146.342 425.128 146.655L425.135 146.647C425.231 146.553 426.128 145.633 427.34 144.86L424.261 143.006ZM431.703 142.97C431.28 143.138 430.9 143.335 430.608 143.517L431.622 144.109C432.184 144.401 432.703 144.926 433.126 145.758C433.126 145.758 433.906 145.13 434.936 144.744L431.703 142.97ZM417.255 144.67V148.582L417.263 148.574C417.386 148.465 418.736 147.297 420.334 146.473L417.255 144.67Z" fill="#2F9DC0"/>
</g>
</g>
<mask id="mask14_2490_10092" style="mask-type:luminance" maskUnits="userSpaceOnUse" x="391" y="135" width="44" height="64">
<path d="M391.501 135.987H434.936V198.237H391.501V135.987Z" fill="white"/>
</mask>
<g mask="url(#mask14_2490_10092)">
<g opacity="0.100006">
<path d="M406.704 190.576C404.12 188.168 401.618 184.264 398.787 181.017C396.101 177.944 393.971 176.442 394.845 174.304L391.701 172.487C390.825 174.624 392.948 176.128 395.642 179.207C398.48 182.447 400.975 186.351 403.558 188.766C406.149 191.174 408.016 191.801 408.016 191.801V196.42L411.162 198.238V193.619C411.162 193.619 409.287 192.991 406.704 190.576ZM417.24 144.663L417.255 144.67V144.634L417.24 144.663ZM405.967 135.987V171.305C407.017 171.815 408.075 172.479 409.112 173.245V137.804L405.967 135.987ZM424.261 143.006C423.26 143.634 422.458 144.371 422.137 144.685L424.208 145.889C424.245 145.911 424.289 145.926 424.325 145.955C424.626 146.108 424.896 146.342 425.128 146.655L425.135 146.647C425.231 146.553 426.128 145.633 427.34 144.86L424.261 143.006ZM431.703 142.97C431.28 143.138 430.9 143.335 430.608 143.517L431.622 144.109C432.184 144.401 432.703 144.926 433.126 145.758C433.126 145.758 433.906 145.13 434.936 144.744L431.703 142.97ZM417.255 144.67V148.582L417.263 148.574C417.386 148.465 418.736 147.297 420.334 146.473L417.255 144.67Z" fill="black"/>
</g>
</g>
<path d="M411.162 198.234V193.616C411.162 193.616 409.289 192.988 406.707 190.578C404.124 188.168 401.621 184.262 398.785 181.019C395.924 177.746 393.703 176.257 395.049 173.884C395.687 172.759 397.885 170.663 400.346 170.225C403.076 169.739 406.187 171.072 409.112 173.242V137.801C409.112 135.205 410.934 132.048 413.182 130.751C415.431 129.452 417.253 130.505 417.253 133.101V148.581C417.253 148.581 422.863 143.599 425.129 146.654C425.129 146.654 430.64 140.882 433.127 145.757C433.127 145.757 437.172 142.489 438.997 146.281C440.822 150.073 439.946 158.082 438.997 163.028C438.05 167.973 435.081 179.806 435.081 179.806V184.425L411.162 198.234Z" fill="#2F9DC0"/>
<mask id="mask15_2490_10092" style="mask-type:luminance" maskUnits="userSpaceOnUse" x="394" y="130" width="47" height="69">
<path d="M394.646 130.195H440.061V198.235H394.646V130.195Z" fill="white"/>
</mask>
<g mask="url(#mask15_2490_10092)">
<g opacity="0.649994">
<path d="M411.162 198.234V193.615C411.162 193.615 409.289 192.988 406.707 190.578C404.124 188.168 401.621 184.262 398.785 181.019C395.924 177.746 393.703 176.257 395.049 173.883C395.687 172.759 397.885 170.663 400.346 170.224C403.076 169.739 406.187 171.071 409.112 173.242V137.801C409.112 135.205 410.934 132.048 413.182 130.751C415.431 129.452 417.253 130.505 417.253 133.1V148.58C417.253 148.58 422.863 143.599 425.129 146.654C425.129 146.654 430.64 140.881 433.127 145.757C433.127 145.757 437.172 142.489 438.997 146.281C440.822 150.073 439.946 158.082 438.997 163.027C438.05 167.973 435.081 179.806 435.081 179.806V184.424L411.162 198.234Z" fill="white"/>
</g>
</g>
<mask id="mask16_2490_10092" style="mask-type:luminance" maskUnits="userSpaceOnUse" x="417" y="144" width="18" height="12">
<path d="M417.24 144.745H434.929V155.227H417.24V144.745Z" fill="white"/>
</mask>
<g mask="url(#mask16_2490_10092)">
<g opacity="0.100006">
<path d="M417.253 155.227C417.253 155.227 417.763 148.164 420.358 146.485C420.358 146.485 420.321 146.496 420.266 146.512C418.613 147.373 417.253 148.58 417.253 148.58V148.447C417.225 148.536 417.253 148.58 417.253 148.58V155.227Z" fill="black"/>
<path d="M425.129 146.653V153.115C425.129 153.115 425.846 146.471 427.335 144.866C426.067 145.674 425.134 146.648 425.129 146.653Z" fill="black"/>
<path d="M433.127 145.757V152.242C433.127 152.242 433.522 145.709 434.928 144.745C433.906 145.13 433.132 145.753 433.127 145.757Z" fill="black"/>
</g>
</g>
</g>
<mask id="mask17_2490_10092" style="mask-type:luminance" maskUnits="userSpaceOnUse" x="0" y="0" width="532" height="532">
<path d="M0 6.10352e-05H532V532H0V6.10352e-05Z" fill="white"/>
</mask>
<g mask="url(#mask17_2490_10092)">
<mask id="mask18_2490_10092" style="mask-type:luminance" maskUnits="userSpaceOnUse" x="336" y="327" width="82" height="58">
<path d="M336.895 327.704H417.261V384.126H336.895V327.704Z" fill="white"/>
</mask>
<g mask="url(#mask18_2490_10092)">
<g opacity="0.149994">
<path d="M358.063 331.329C339.687 340.486 331.346 350.106 340.858 356.848C350.371 363.589 376.26 372.716 376.26 372.716L379.653 384.126L417.261 362.414V349.498C417.261 349.498 394.056 333.501 384.995 330.419C375.934 327.337 368.834 325.962 358.063 331.329Z" fill="black"/>
</g>
</g>
<path d="M409.92 389.564C409.92 389.564 404.241 403.485 403.951 408.977C403.649 414.699 402.267 416.594 403.237 422.818C403.448 424.173 404.16 426.891 404.337 427.991C404.495 428.971 404.128 429.76 402.867 430.02C400.384 430.535 396.261 425.871 394.298 420.795C392.335 415.72 389.553 404.272 389.381 402.9C389.214 401.579 389.653 399.935 390.167 398.895C391.066 397.07 391.308 396.82 391.308 396.82C392.129 394.33 392.523 389.595 393.216 386.318L409.92 389.564Z" fill="#FFAAA8"/>
<path d="M384.524 408.116C384.524 408.116 383.898 409.259 383.859 409.992C383.8 411.133 386.378 414.894 387.389 416.263C388.401 417.633 389.389 419.348 389.251 422.768C389.103 426.422 390.716 429.939 393.076 432.952C395.435 435.965 399.53 439.266 405.558 441.121C411.585 442.976 413.71 439.955 413.71 439.955C413.71 439.955 415.579 437.047 414.456 435.855C413.331 434.663 384.524 408.116 384.524 408.116Z" fill="#1A2E35"/>
<path d="M391.307 396.821C391.124 396.814 390.8 396.762 390.327 397.331C390.149 397.547 389.05 400.257 388.138 401.68C387.161 403.204 384.831 405.805 384.524 408.116C385.92 412.585 390.111 415.694 390.741 419.914C391.371 424.131 391.441 429.029 397.925 434.193C404.41 439.355 411.075 439.888 413.472 438.521C415.868 437.155 415.649 434.588 412.309 429.699C408.763 424.51 406.376 413.267 406.375 413.263C406.045 411.707 405.873 410.064 405.748 408.48C405.627 406.94 406.076 405.296 406.196 403.748C406.252 403.016 406.281 402.229 405.893 401.604C405.505 400.981 404.786 400.659 404.109 400.371C403.028 399.913 401.936 399.451 400.779 399.243C399.623 399.036 398.381 399.102 397.348 399.658C396.6 400.061 395.987 400.701 395.203 401.027C394.15 401.462 392.854 401.231 392.019 400.457C390.787 399.318 390.969 398.292 391.157 397.531C391.136 397.509 391.307 396.821 391.307 396.821Z" fill="#375A64"/>
<path d="M394.136 430.053C394.136 430.053 396.648 424.945 403.533 424.972C410.417 424.998 412.799 428.501 413.846 430.561C415.093 433.014 416.394 437.461 413.552 438.737C410.483 440.116 406.928 439.689 401.338 436.886C395.747 434.085 394.136 430.053 394.136 430.053Z" fill="#FAFAFA"/>
<path d="M395.39 409.316C395.586 409.408 395.818 409.415 396.019 409.313C397.083 408.771 402.708 407.593 405.985 410.635C406.41 410.294 406.324 409.671 405.781 408.795C401.945 406.359 396.619 407.446 395.336 408.102C395 408.273 394.88 408.684 395.069 409.017C395.145 409.152 395.258 409.253 395.39 409.316Z" fill="#FAFAFA"/>
<path d="M406.694 414.646C406.93 414.038 406.634 413.096 406.296 412.756C402.514 410.702 397.566 411.729 396.335 412.355C395.998 412.527 395.88 412.936 396.068 413.27C396.144 413.406 396.256 413.507 396.388 413.569C396.584 413.663 396.817 413.669 397.017 413.566C398.05 413.041 403.388 411.93 406.694 414.646Z" fill="#FAFAFA"/>
<path d="M409.502 423.949C409.53 423.106 409.23 422.272 408.622 421.457C404.8 419.154 399.597 420.218 398.332 420.863C397.996 421.035 397.875 421.445 398.064 421.778C398.14 421.914 398.254 422.015 398.386 422.078C398.581 422.171 398.814 422.177 399.015 422.075C400.136 421.503 406.341 420.227 409.502 423.949Z" fill="#FAFAFA"/>
<path d="M397.387 417.824C397.583 417.916 397.815 417.923 398.016 417.821C399.067 417.285 404.578 416.137 407.871 419.047C408.02 418.409 407.839 417.724 407.296 417.009C403.512 414.955 398.563 415.982 397.332 416.61C396.997 416.781 396.878 417.192 397.066 417.525C397.143 417.66 397.255 417.761 397.387 417.824Z" fill="#FAFAFA"/>
<path d="M416.038 406.659C416.038 406.659 418.853 423.639 421.983 430.228C425.114 436.816 426.722 439.998 431.035 444.983C431.974 446.068 434.113 448.085 434.881 448.963C435.565 449.745 435.675 450.648 434.701 451.578C432.784 453.413 424.654 453.848 420.097 450.432C415.541 447.017 411.392 439.741 408.675 436.992C407.654 435.959 406.694 434.903 405.779 433.783C404.898 432.702 405.139 431.675 405.061 430.465C405.023 429.88 405.108 428.282 405.108 428.282C404.485 425.423 402.797 420.936 401.901 418.15L416.038 406.659Z" fill="#FFAAA8"/>
<path d="M403.501 441.112C403.501 441.112 403.419 442.474 403.709 443.184C404.164 444.29 408.283 446.697 409.851 447.541C411.419 448.386 413.122 449.567 414.518 452.865C416.01 456.389 419.109 458.997 422.687 460.795C426.266 462.592 431.614 463.886 438.147 462.949C444.679 462.011 445.341 458.204 445.341 458.204C445.341 458.204 445.811 454.617 444.215 453.991C442.62 453.365 403.501 441.112 403.501 441.112Z" fill="#1A2E35"/>
<path d="M404.875 427.394C404.699 427.469 404.369 427.565 404.176 428.314C404.103 428.598 404.274 431.654 404.046 433.408C403.802 435.285 402.76 438.788 403.502 441.113C406.818 444.718 412.173 445.788 414.653 449.498C417.133 453.209 419.389 457.811 427.831 459.801C436.273 461.79 442.818 459.317 444.476 456.954C446.132 454.59 444.778 452.259 439.434 449.125C433.762 445.798 426.481 436.226 426.478 436.222C425.469 434.897 424.574 433.42 423.748 431.976C422.945 430.573 422.635 428.817 422.057 427.299C421.784 426.58 421.46 425.822 420.813 425.405C420.168 424.988 419.344 425.005 418.575 425.035C417.347 425.084 416.108 425.135 414.919 425.455C413.733 425.775 412.588 426.392 411.857 427.382C411.329 428.097 411.037 428.976 410.439 429.633C409.639 430.515 408.31 430.875 407.172 430.517C405.498 429.989 405.211 428.937 405.051 428.133C405.02 428.121 404.875 427.394 404.875 427.394Z" fill="#375A64"/>
<path d="M422.396 457.578C422.396 457.578 422.491 451.622 429.018 448.572C435.543 445.521 439.363 447.772 441.274 449.253C443.551 451.017 446.766 454.645 444.648 457.122C442.359 459.797 438.806 460.982 432.262 460.827C425.721 460.673 422.396 457.578 422.396 457.578Z" fill="#FAFAFA"/>
<path d="M414.318 437.394C414.545 437.395 414.769 437.297 414.912 437.11C415.676 436.123 420.475 432.495 424.935 433.909C425.184 433.398 424.824 432.846 423.918 432.259C419.201 431.669 414.647 435.076 413.725 436.269C413.483 436.581 413.553 437.024 413.881 437.255C414.013 437.348 414.165 437.393 414.318 437.394Z" fill="#FAFAFA"/>
<path d="M427.397 437.389C427.349 436.707 426.648 435.948 426.176 435.777C421.68 435.524 417.456 438.705 416.57 439.849C416.329 440.16 416.399 440.602 416.727 440.834C416.86 440.928 417.012 440.972 417.164 440.973C417.391 440.974 417.614 440.877 417.757 440.69C418.501 439.731 423.054 436.295 427.397 437.389Z" fill="#FAFAFA"/>
<path d="M434.208 444.937C433.86 444.128 433.203 443.472 432.262 442.973C427.618 442.5 423.17 445.83 422.261 447.007C422.018 447.32 422.088 447.761 422.416 447.993C422.549 448.087 422.702 448.132 422.854 448.132C423.08 448.133 423.303 448.035 423.448 447.849C424.255 446.806 429.555 442.828 434.208 444.937Z" fill="#FAFAFA"/>
<path d="M420.01 444.553C420.235 444.554 420.459 444.456 420.603 444.27C421.359 443.292 426.061 439.745 430.475 441.028C430.332 440.357 429.855 439.789 429.021 439.356C424.522 439.103 420.299 442.285 419.415 443.428C419.174 443.741 419.244 444.182 419.572 444.413C419.705 444.508 419.857 444.553 420.01 444.553Z" fill="#FAFAFA"/>
<path d="M378.573 309.963C385.535 315.065 409.78 329.062 419.625 338.175C422.469 340.808 423.405 344.273 422.706 351.826C421.756 362.077 413.701 397.011 413.701 397.011C412.592 398.983 410.641 395.241 410.641 395.241L372.221 346.466L378.573 309.963Z" fill="#2F9DC0"/>
<mask id="mask19_2490_10092" style="mask-type:luminance" maskUnits="userSpaceOnUse" x="372" y="309" width="51" height="89">
<path d="M372.221 309.964H422.928V397.585H372.221V309.964Z" fill="white"/>
</mask>
<g mask="url(#mask19_2490_10092)">
<g opacity="0.300003">
<path d="M378.573 309.963C385.535 315.065 409.78 329.062 419.625 338.175C422.469 340.808 423.405 344.273 422.706 351.826C421.756 362.077 413.701 397.011 413.701 397.011C412.592 398.983 410.641 395.241 410.641 395.241L372.221 346.466L378.573 309.963Z" fill="black"/>
</g>
</g>
<mask id="mask20_2490_10092" style="mask-type:luminance" maskUnits="userSpaceOnUse" x="374" y="318" width="39" height="69">
<path d="M374.429 318.624H412.049V386.133H374.429V318.624Z" fill="white"/>
</mask>
<g mask="url(#mask20_2490_10092)">
<g opacity="0.300003">
<path d="M412.034 386.133C403.145 378.706 374.429 333.398 374.429 333.398C374.429 333.398 374.436 333.391 374.444 333.384C378.355 330.08 380.371 318.625 380.371 318.625C381.921 323.044 380.284 329.709 379.079 332.146C381.342 334.104 394.117 344.611 402.993 351.635C405.219 353.397 407.494 355.573 408.256 359.582C410.085 369.192 412.243 384.189 412.034 386.133Z" fill="black"/>
</g>
</g>
<path d="M378.573 309.963L329.118 320.913C331.532 329.99 332.222 334.678 334.742 339.458C337.272 344.255 340.071 349.37 352.935 355.703C365.32 361.8 380.448 368.081 383.474 369.52C385.755 370.605 386.841 375.165 387.873 381.078C388.953 387.28 389.052 392.133 395.186 405.148C401.194 417.892 402.42 420.646 402.42 420.646C402.42 420.646 411.714 421.613 417.883 416.186C417.883 416.186 409.466 372.49 407.672 364.624C406.67 360.231 406.65 357.915 401.195 353.086C396.517 348.948 375.63 333.138 375.63 333.138C375.63 333.138 383.925 321.996 378.573 309.963Z" fill="#2F9DC0"/>
<mask id="mask21_2490_10092" style="mask-type:luminance" maskUnits="userSpaceOnUse" x="329" y="309" width="89" height="112">
<path d="M329.117 309.964H417.883V420.713H329.117V309.964Z" fill="white"/>
</mask>
<g mask="url(#mask21_2490_10092)">
<g opacity="0.300003">
<path d="M378.573 309.963L329.118 320.913C331.532 329.99 332.222 334.678 334.742 339.458C337.272 344.255 340.071 349.37 352.935 355.703C365.32 361.8 380.448 368.081 383.474 369.52C385.755 370.605 386.841 375.165 387.873 381.078C388.953 387.28 389.052 392.133 395.186 405.148C401.194 417.892 402.42 420.646 402.42 420.646C402.42 420.646 411.714 421.613 417.883 416.186C417.883 416.186 409.466 372.49 407.672 364.624C406.67 360.231 406.65 357.915 401.195 353.086C396.517 348.948 375.63 333.138 375.63 333.138C375.63 333.138 383.925 321.996 378.573 309.963Z" fill="black"/>
</g>
</g>
<path d="M435.418 227.808C434.587 227.725 433.73 227.941 432.967 228.3C432.064 228.726 431.266 229.342 430.462 229.935C429.232 230.84 427.969 231.702 426.677 232.516C425.528 233.242 424.316 234.053 422.948 234.279C422.49 234.355 421.515 234.371 422.013 233.676C422.664 232.768 423.395 231.906 423.881 230.901C424.367 229.896 424.585 228.694 424.156 227.663C424.027 227.352 423.826 227.051 423.519 226.91C423.087 226.711 422.867 226.942 422.619 227.226C422.358 227.524 422.047 227.778 421.745 228.042C421.128 228.587 420.511 229.134 419.903 229.687C416.344 232.919 412.017 235.721 410.495 240.39C410.274 241.065 409.267 244.144 409.235 249.271C409.202 254.398 408.899 272.243 408.899 272.243C408.899 272.243 394.727 260.323 388.58 255.186C385.616 252.709 381.474 249.702 376.911 249.269C373.68 248.962 371.795 248.98 371.795 248.98L381.461 272.414C381.461 272.414 399.739 286.012 408.502 290.693C416.411 294.919 420.257 291.875 421.212 289.658C422.797 285.983 424.422 284.26 422.192 263.748C422.033 262.16 421.836 257.619 421.657 256.034C421.427 252.723 421.802 249.357 423.085 248.639C425.445 247.315 427.756 245.873 429.79 244.09C431.13 242.917 432.347 241.592 433.336 240.107C433.75 239.484 434.47 238.58 434.549 237.818C434.627 237.047 434.288 236.229 434.523 235.468C434.683 234.947 435.033 234.524 435.164 233.968C435.431 232.838 435.333 231.54 436.052 230.561C436.448 230.023 437.106 229.538 437.015 228.876C436.944 228.346 436.398 228.012 435.879 227.885C435.726 227.849 435.573 227.823 435.418 227.808Z" fill="#FFAAA8"/>
<path d="M420.96 236.708C420.562 239.473 418.588 242.928 417.265 244.089C417.265 244.089 419.475 242.833 420.406 240.904C421.427 238.79 421.312 237.716 420.96 236.708Z" fill="#FF9090"/>
<path d="M370.819 248.507C375.753 248.722 379.597 248.832 383.803 251.26C388.009 253.689 406.794 269.411 406.794 269.411C406.794 269.411 406.978 261.407 407.459 257.189C407.791 254.266 408.276 253.347 409.189 253.493C409.189 253.493 410.818 255.99 415.434 256.336C420.05 256.683 421.6 254.767 421.6 254.767C421.6 254.767 422.946 254.449 423.43 256.336C423.914 258.222 424.785 278.671 423.943 284.563C423.101 290.455 420.46 293.193 416.921 294.022C413.383 294.852 405.18 289.892 395.329 283.267C385.477 276.641 374.781 270.466 374.781 270.466L370.819 248.507Z" fill="#2F9DC0"/>
<mask id="mask22_2490_10092" style="mask-type:luminance" maskUnits="userSpaceOnUse" x="370" y="248" width="55" height="47">
<path d="M370.819 248.507H424.295V294.113H370.819V248.507Z" fill="white"/>
</mask>
<g mask="url(#mask22_2490_10092)">
<g opacity="0.699997">
<path d="M370.818 248.507C375.752 248.722 379.596 248.831 383.802 251.259C388.008 253.688 406.793 269.411 406.793 269.411C406.793 269.411 406.977 261.407 407.458 257.189C407.79 254.266 408.275 253.347 409.188 253.493C409.188 253.493 410.817 255.99 415.433 256.336C420.049 256.683 421.599 254.766 421.599 254.766C421.599 254.766 422.945 254.449 423.429 256.336C423.913 258.222 424.784 278.671 423.942 284.563C423.1 290.455 420.459 293.193 416.92 294.021C413.382 294.851 405.179 289.892 395.328 283.267C385.476 276.641 374.78 270.466 374.78 270.466L370.818 248.507Z" fill="white"/>
</g>
</g>
<mask id="mask23_2490_10092" style="mask-type:luminance" maskUnits="userSpaceOnUse" x="404" y="267" width="4" height="14">
<path d="M404.494 267.557H407.199V280.891H404.494V267.557Z" fill="white"/>
</mask>
<g mask="url(#mask23_2490_10092)">
<g opacity="0.100006">
<path d="M406.794 269.412C405.993 274.9 407.199 280.891 407.199 280.891C407.199 280.891 403.597 273.93 404.706 267.557L406.794 269.412Z" fill="black"/>
</g>
</g>
<path d="M330.263 252.827C329.45 257.138 321.261 298.098 330.576 328.645C347.349 330.624 376.807 322.923 381.223 311.822C381.223 311.822 378.247 301.287 376.957 296.137C377.23 287.686 376.954 271.559 376.783 266.569C376.445 256.68 374.9 249.031 369.995 248.307C369.995 248.307 360.145 247.919 354.182 248.163C349.033 248.373 345.163 248.429 345.163 248.429L330.263 252.827Z" fill="#FAFAFA"/>
<path d="M354.901 317.935C353.817 315.532 333.908 303.239 333.908 303.239C333.908 303.239 334.211 297.545 335.397 287.068C336.582 276.592 336.932 264.035 333.156 257.724L329.349 257.872C327.196 270.581 322.82 303.214 330.576 328.645C339.518 329.7 352.065 328.002 362.502 324.506C360.577 323.215 355.764 319.85 354.901 317.935Z" fill="#F0F0F0"/>
<path d="M343.436 238.815C343.468 236.696 339.407 230.364 337.567 225.356C334.492 216.981 334.224 209.464 341.814 206.2C341.814 206.2 346.559 198.018 358.522 197.61C370.483 197.204 379.679 207.301 375.705 220.802L343.436 238.815Z" fill="#375A64"/>
<path d="M346.392 225.878C344.83 225.878 344.262 223.635 343.189 222.43C342.118 221.227 338.422 219.871 336.041 223.319C333.831 226.519 335.98 231.13 338.392 232.914C341.429 235.16 343.525 232.993 343.525 232.993L343.25 249.899C343.25 249.899 343.788 253.647 350.695 255.823C358.67 258.336 365.162 254.138 360.411 248.875L360.588 244.421C362.853 244.933 365.948 245.209 368.3 244.851C370.96 244.447 373.091 242.442 374.458 238.341C377.128 230.334 376.386 219.657 373.631 209.908C370.999 211.989 358.822 215.892 347.853 212.023C348.24 218.757 347.919 225.878 346.392 225.878Z" fill="#FFAAA8"/>
<path d="M342.058 231.096C342.058 231.643 341.616 232.086 341.068 232.086C340.522 232.086 340.079 231.643 340.079 231.096C340.079 230.55 340.522 230.107 341.068 230.107C341.616 230.107 342.058 230.55 342.058 231.096Z" fill="#1A2E35"/>
<path d="M360.589 244.421C360.589 244.421 353.932 242.477 351.306 240.637C349.369 239.278 347.643 237.114 347.224 235.979C347.224 235.979 348.221 239.548 350.037 241.611C353.213 245.221 360.501 246.889 360.501 246.889L360.589 244.421Z" fill="#FF9090"/>
<path d="M360.053 225.786C360.071 226.738 359.343 227.52 358.429 227.534C357.513 227.549 356.757 226.79 356.74 225.84C356.721 224.888 357.449 224.106 358.364 224.091C359.278 224.078 360.035 224.836 360.053 225.786Z" fill="#1A2E35"/>
<path d="M358.243 220.136L354.661 222.023C354.158 220.996 354.552 219.739 355.541 219.218C356.531 218.696 357.739 219.107 358.243 220.136Z" fill="#1A2E35"/>
<path d="M359.534 234.495L365.23 236.312C364.668 237.907 362.937 238.793 361.365 238.291C359.791 237.789 358.972 236.09 359.534 234.495Z" fill="#FF9090"/>
<path d="M373.575 220.064L369.641 218.986C369.9 217.879 370.991 217.224 372.077 217.522C373.164 217.82 373.835 218.957 373.575 220.064Z" fill="#1A2E35"/>
<path d="M372.558 224.479C372.576 225.429 371.848 226.212 370.933 226.227C370.018 226.241 369.262 225.483 369.245 224.531C369.225 223.581 369.954 222.798 370.868 222.784C371.783 222.769 372.539 223.528 372.558 224.479Z" fill="#1A2E35"/>
<path d="M374.391 209.908C378.068 207.286 380.115 203.781 379.139 198.955C377.703 200.397 373.68 200.654 370.161 198.975C366.407 197.183 360.452 194.752 352.118 196.365C345.62 197.624 341.813 202.565 341.813 206.2C343.085 208.801 344.835 210.188 347.854 212.023C347.854 212.023 354.085 217.122 363.536 216.538C369.617 216.161 372.772 213.197 372.772 213.197C372.772 213.197 369.373 213.496 367.784 212.44C367.784 212.44 371.642 211.868 374.391 209.908Z" fill="#2B454E"/>
<path d="M365.432 232.383L370.508 230.068L364.022 221.127L365.432 232.383Z" fill="#FF9090"/>
<mask id="mask24_2490_10092" style="mask-type:luminance" maskUnits="userSpaceOnUse" x="350" y="319" width="72" height="44">
<path d="M350.03 319.455H421.167V362.939H350.03V319.455Z" fill="white"/>
</mask>
<g mask="url(#mask24_2490_10092)">
<g opacity="0.149994">
<path d="M421.167 339.985C420.734 339.326 420.225 338.73 419.626 338.175C413.712 332.701 402.605 325.467 393.166 319.455L350.227 344.249C349.965 344.401 349.965 344.781 350.227 344.933L381.412 362.94L421.167 339.985Z" fill="black"/>
</g>
</g>
<path d="M434.187 327.379V328.072C434.187 329.089 433.644 330.031 432.761 330.545L382.836 359.367C382.399 359.624 381.9 359.744 381.416 359.744C380.921 359.744 380.427 359.622 379.98 359.365L352.767 343.705C351.892 343.2 351.344 342.25 351.344 341.233V340.272H351.35V340.282C351.35 340.405 351.407 340.519 351.53 340.596L381.416 357.853L434.187 327.379Z" fill="#2B454E"/>
<path d="M381.411 357.848V359.747C381.902 359.747 382.396 359.622 382.836 359.367L432.761 330.544C433.645 330.035 434.19 329.09 434.19 328.071V327.376L381.411 357.848Z" fill="#1A2E35"/>
<path d="M434.19 327.376L404.588 310.287C404.063 309.984 403.414 309.984 402.887 310.287L351.532 339.941C351.281 340.087 351.281 340.451 351.532 340.596L381.411 357.85L434.19 327.376Z" fill="#375A64"/>
<path d="M381.139 355.336L365.173 346.127L411.859 319.174L427.907 328.334L381.139 355.336Z" fill="#2B454E"/>
<path d="M427.907 328.333L427.297 328.685L411.857 319.875L365.784 346.48L365.176 346.129L411.857 319.172L427.907 328.333Z" fill="#1A2E35"/>
<path d="M373.292 329.72L373.586 329.889L381.411 334.407L395.328 326.373L395.618 326.207L387.499 321.52L373.292 329.72Z" fill="#1A2E35"/>
<path d="M373.586 329.889L381.411 334.407L395.329 326.372L387.498 321.854L373.586 329.889Z" fill="#2B454E"/>
<path d="M388.438 335.312C386.199 333.092 382.951 330.014 380.221 329.109C379.869 328.996 379.339 328.751 378.303 328.512C379.244 328.327 380.189 328.262 381.108 327.953C382.02 327.645 382.888 327.142 383.477 326.381C383.715 326.076 383.882 325.588 383.583 325.343C383.475 325.254 383.334 325.204 383.193 325.2C381.148 325.138 379.537 324.82 377.681 324.686C376.869 324.628 375.958 324.519 375.175 324.732C374.413 324.939 373.653 325.161 372.906 325.419C369.514 326.593 366.422 327.649 361.619 326.531L352.978 321.921C352.978 321.921 351.131 321.459 348.41 326.067C345.688 330.674 347.278 333.206 347.278 333.206L356.986 336.556C357.033 336.574 357.076 336.591 357.125 336.61C358.193 337.01 359.155 337.845 361.707 338.628C364.732 339.556 368.6 338.459 371.23 338.318C373.858 338.178 378.312 339.393 380.75 340.382C383.188 341.372 386.115 337.617 387.337 338.068C388.56 338.52 390.676 337.532 388.438 335.312Z" fill="#FFAAA8"/>
<path d="M377.17 327.066C375.401 326.886 373.45 327.668 373.45 327.668C373.45 327.668 375.636 327.714 378.302 328.513C379.244 328.328 380.19 328.262 381.108 327.952C381.912 327.682 382.684 327.256 383.259 326.638C381.788 327.636 378.939 327.246 377.17 327.066Z" fill="#FF9090"/>
<path d="M330.262 252.827C332.722 253.799 335.921 264.048 333.95 273.913L329.373 304.753C329.373 304.753 334.98 308.073 342.847 312.945C348.3 316.323 352.976 319.419 352.978 321.92C349.406 323.204 346.198 329.778 347.278 333.205C344.839 336.095 322.327 323.615 314.457 318.231C310.807 315.736 308.967 314.751 310.371 303.483C311.926 291.012 312.991 277.158 315.42 267.913C317.955 258.262 320.778 254.516 330.262 252.827Z" fill="#2F9DC0"/>
<mask id="mask25_2490_10092" style="mask-type:luminance" maskUnits="userSpaceOnUse" x="309" y="252" width="44" height="82">
<path d="M309.899 252.828H352.978V333.633H309.899V252.828Z" fill="white"/>
</mask>
<g mask="url(#mask25_2490_10092)">
<g opacity="0.699997">
<path d="M330.262 252.827C332.722 253.799 335.921 264.048 333.95 273.913L329.373 304.753C329.373 304.753 334.98 308.073 342.847 312.945C348.3 316.323 352.976 319.419 352.978 321.92C349.406 323.204 346.198 329.778 347.278 333.205C344.839 336.095 322.327 323.615 314.457 318.231C310.807 315.736 308.967 314.751 310.371 303.483C311.926 291.012 312.991 277.158 315.42 267.913C317.955 258.262 320.778 254.516 330.262 252.827Z" fill="white"/>
</g>
</g>
<path d="M382.217 358.269C383.162 358.634 384.235 358.564 385.129 358.045L434.835 329.347C435.709 328.842 436.309 327.977 436.479 326.983L441.92 294.532C441.951 294.347 441.966 294.163 441.966 293.978C441.966 293.074 441.605 292.209 440.967 291.575L389.313 321.402C388.667 321.776 388.223 322.416 388.098 323.151L382.217 358.269Z" fill="#2B454E"/>
<path d="M381.411 357.849L381.752 358.044C381.902 358.129 382.056 358.204 382.217 358.27L388.097 323.15C388.222 322.416 388.667 321.777 389.312 321.401L440.966 291.574C440.766 291.374 440.53 291.199 440.276 291.049L388.518 320.932C387.873 321.306 387.427 321.946 387.303 322.681L381.411 357.849Z" fill="#375A64"/>
<path d="M388.578 322.063L387.777 321.6C387.54 321.916 387.372 322.282 387.303 322.681L381.412 357.85L381.752 358.045C381.903 358.129 382.057 358.204 382.216 358.269L388.098 323.151C388.166 322.748 388.338 322.38 388.578 322.063Z" fill="#1A2E35"/>
<path d="M410.212 328.313C410.576 326.14 412.818 323.255 415.221 321.867C417.625 320.481 419.277 321.117 418.912 323.29C418.547 325.463 416.305 328.348 413.902 329.736C411.499 331.122 409.847 330.486 410.212 328.313Z" fill="#2F9DC0"/>
</g>
</svg>
